<?xml version="1.0" encoding="utf-8"?>
<!-- Generator: Adobe Illustrator 22.1.0, SVG Export Plug-In . SVG Version: 6.00 Build 0)  -->
<svg version="1.1" id="Laag_5" xmlns="http://www.w3.org/2000/svg" xmlns:xlink="http://www.w3.org/1999/xlink" x="0px" y="0px"
	 viewBox="0 0 595.3 28.8" style="enable-background:new 0 0 595.3 28.8;" xml:space="preserve">
<style type="text/css">
	.st0{fill:#282935;}
</style>
<g>
	<path class="st0" d="M308.1,17h-0.6c-0.6,1.9-1.1,3.9-1.7,5.8c0,0,0,0.1,0,0.1c0,0,0,0-0.1,0c-1-1.7-2-3.3-3-5
		c0.9-0.8,1.4-2,1.4-3.3c0-1.3-0.6-2.5-1.5-3.4c1-1.7,2-3.4,3-5.1c0,0,0,0,0.1,0c0,0.2,0.1,0.3,0.1,0.5c0.5,1.8,1,3.6,1.6,5.4
		c0,0,0,0.1,0,0.1h0.5c0.4-0.6,0.7-1.2,1.1-1.8c0.1-0.2,0.1-0.3,0.1-0.5c-0.7-2.6-1.4-5.2-2.1-7.8c0-0.1,0-0.1-0.1-0.2
		c-0.1,0-0.2,0-0.2,0c-2.7,0.7-5.3,1.4-8,2.1c-0.2,0-0.3,0.1-0.3,0.3c-0.3,0.6-0.7,1.2-1,1.8c0,0,0,0,0,0.1c0.1,0.1,0.2,0.3,0.3,0.5
		c0,0,0.1,0,0.1,0c2-0.5,3.9-1,5.9-1.5c0.1,0,0.1,0,0.3-0.1c0,0.1,0,0.1-0.1,0.2c-1,1.6-1.9,3.3-2.9,4.9c-0.4-0.1-0.9-0.2-1.4-0.2
		c-2.2,0-4,1.5-4.5,3.6c-2.1,0-4.3,0-6.4,0c0,0-0.1,0-0.2,0c0.1-0.1,0.1-0.1,0.2-0.2c1.4-1.4,2.9-2.8,4.3-4.3c0,0,0,0,0.1-0.1
		c-0.1-0.2-0.2-0.3-0.3-0.5c0,0,0,0,0,0c-0.7,0-1.4,0-2.1,0c-0.2,0-0.3,0-0.4,0.2c-2,1.9-3.9,3.8-5.9,5.7c0,0-0.1,0.1-0.1,0.2
		c0,0,0.1,0.1,0.1,0.1c2,1.9,4,3.9,5.9,5.8c0.1,0.1,0.2,0.1,0.3,0.1c0.7,0,1.4,0,2.1,0c0,0,0,0,0,0c0,0,0-0.1,0.1-0.1
		c0.1-0.1,0.1-0.2,0.2-0.3c0,0,0-0.1,0.1-0.1c0,0,0,0,0,0c-1.5-1.4-2.9-2.9-4.4-4.3c0,0-0.1-0.1-0.1-0.2h0.3c2.1,0,4.2,0,6.3,0
		c0.4,2.1,2.3,3.7,4.6,3.7c0.5,0,1-0.1,1.4-0.2c0.9,1.6,1.9,3.2,2.8,4.8c0,0.1,0.1,0.1,0.1,0.2c-0.1,0-0.2,0-0.3,0
		c-2-0.5-4-1-5.9-1.5c0,0-0.1,0-0.1,0c0,0,0,0,0,0.1c-0.1,0.1-0.1,0.2-0.2,0.3c0,0,0,0,0,0.1c0,0,0,0,0,0.1c0.3,0.6,0.7,1.1,1,1.7
		c0.1,0.2,0.2,0.3,0.5,0.3c2.4,0.6,4.8,1.2,7.1,1.9c0.3,0.1,0.7,0.2,1,0.3c0-0.1,0.1-0.2,0.1-0.2c0.7-2.6,1.4-5.1,2.1-7.7
		c0.1-0.2,0-0.4-0.1-0.6C308.8,18.1,308.4,17.6,308.1,17z M296.6,14.7c0-1.6,1.3-2.9,2.9-2.9c1.6,0,2.9,1.3,2.9,2.9
		s-1.3,2.9-2.9,2.9C297.9,17.5,296.6,16.2,296.6,14.7z"/>
	<g>
		<rect x="8.6" y="13.6" class="st0" width="270.2" height="2"/>
	</g>
	<g>
		<rect x="315.4" y="13.6" class="st0" width="272.2" height="2"/>
	</g>
	<path class="st0" d="M4.5,10C2,10,0,12.1,0,14.5S2,19,4.5,19C7,19,9,17,9,14.5S7,10,4.5,10z M4.5,17.8c-1.8,0-3.3-1.5-3.3-3.3
		c0-1.8,1.5-3.3,3.3-3.3c1.8,0,3.3,1.5,3.3,3.3C7.8,16.3,6.3,17.8,4.5,17.8z"/>
	<path class="st0" d="M590.8,10c-2.5,0-4.5,2-4.5,4.5s2,4.5,4.5,4.5c2.5,0,4.5-2,4.5-4.5S593.3,10,590.8,10z M590.8,17.8
		c-1.8,0-3.3-1.5-3.3-3.3c0-1.8,1.5-3.3,3.3-3.3c1.8,0,3.3,1.5,3.3,3.3C594,16.3,592.6,17.8,590.8,17.8z"/>
	<path class="st0" d="M280.8,14.5c-2-1.9-4-3.9-5.9-5.8c-0.1-0.1-0.2-0.1-0.3-0.1c-0.7,0-1.4,0-2.1,0c0,0,0,0,0,0c0,0,0,0.1-0.1,0.1
		c-0.1,0.1-0.1,0.2-0.2,0.3c0,0,0,0.1-0.1,0.1c0,0,0,0,0,0c1.5,1.4,2.9,2.9,4.4,4.3c0,0,0.1,0.1,0.1,0.2h-0.3c-1.8,0-3.5,0-5.3,0v2
		c1.8,0,3.6,0,5.4,0c0,0,0.1,0,0.2,0c-0.1,0.1-0.1,0.1-0.2,0.2c-1.4,1.4-2.9,2.8-4.3,4.3c0,0,0,0-0.1,0.1c0.1,0.2,0.2,0.3,0.3,0.5
		c0,0,0,0,0,0c0.7,0,1.4,0,2.1,0c0.2,0,0.3,0,0.4-0.2c2-1.9,3.9-3.8,5.9-5.7c0,0,0.1-0.1,0.1-0.2C280.8,14.6,280.8,14.5,280.8,14.5z
		"/>
	<path class="st0" d="M314,14.8c2,1.9,4,3.9,5.9,5.8c0.1,0.1,0.2,0.1,0.3,0.1c0.7,0,1.4,0,2.1,0c0,0,0,0,0,0c0,0,0-0.1,0.1-0.1
		c0.1-0.1,0.1-0.2,0.2-0.3c0,0,0-0.1,0.1-0.1c0,0,0,0,0,0c-1.5-1.4-2.9-2.9-4.4-4.3c0,0-0.1-0.1-0.1-0.2h0.3c1.8,0,3.5,0,5.3,0v-2
		c-1.8,0-3.6,0-5.4,0c0,0-0.1,0-0.2,0c0.1-0.1,0.1-0.1,0.2-0.2c1.4-1.4,2.9-2.8,4.3-4.3c0,0,0,0,0.1-0.1c-0.1-0.2-0.2-0.3-0.3-0.5
		c0,0,0,0,0,0c-0.7,0-1.4,0-2.1,0c-0.2,0-0.3,0-0.4,0.2c-2,1.9-3.9,3.8-5.9,5.7c0,0-0.1,0.1-0.1,0.2C314,14.7,314,14.7,314,14.8z"/>
</g>
</svg>
