<svg xmlns="http://www.w3.org/2000/svg" viewBox="0 0 292 364.44"><defs><style>.cls-1{fill:#61c3d7;}.cls-2{fill:#4489c9;}.cls-3{fill:#005b95;}.cls-4{fill:#6ec7d9;}.cls-5{fill:#373f67;}.cls-6{fill:#fff;}</style></defs><title>Tekengebied 1</title><g id="Laag_3" data-name="Laag 3"><rect class="cls-1" x="93.19" y="76.33" width="103.45" height="74.12"/><rect class="cls-1" x="93.93" y="258.53" width="32.81" height="94.74" rx="8.5" ry="8.5"/><rect class="cls-2" x="82.31" y="333.89" width="56.04" height="22.32" rx="5.67" ry="5.67"/><rect class="cls-3" x="93.93" y="281.76" width="32.81" height="7.09"/><rect class="cls-3" x="93.93" y="296.66" width="32.81" height="7.09"/><rect class="cls-3" x="93.93" y="311.56" width="32.81" height="7.09"/><rect class="cls-1" x="171.67" y="258.53" width="32.81" height="94.74" rx="8.5" ry="8.5"/><rect class="cls-2" x="160.05" y="333.89" width="56.04" height="22.32" rx="5.67" ry="5.67"/><rect class="cls-3" x="171.67" y="281.76" width="32.81" height="7.09"/><rect class="cls-3" x="171.67" y="296.66" width="32.81" height="7.09"/><rect class="cls-3" x="171.67" y="311.56" width="32.81" height="7.09"/><path class="cls-4" d="M42.42,276.55c-24.67-40.1-5.63-84.4-4.81-86.26l9.16,4c-.18.41-17.7,41.45,4.17,77Z"/><circle class="cls-3" cx="46.68" cy="178.98" r="24.45"/><path class="cls-3" d="M51.17,302.44c-6.46-8.48-8.26-18-4-21.21s12.92,1,19.39,9.49c.67.88,1.28,1.77,1.84,2.66a18.72,18.72,0,1,0-15.13,11.55C52.54,304.14,51.84,303.32,51.17,302.44Z"/><path class="cls-4" d="M250.65,276.55c24.66-40.1,5.63-84.4,4.8-86.26l-9.15,4c.18.41,17.7,41.45-4.17,77Z"/><circle class="cls-3" cx="246.39" cy="178.98" r="24.45"/><path class="cls-3" d="M241.9,302.44c6.46-8.48,8.26-18,4-21.21s-12.92,1-19.39,9.49c-.67.88-1.28,1.77-1.85,2.66a18.73,18.73,0,1,1,15.14,11.55C240.53,304.14,241.23,303.32,241.9,302.44Z"/></g><g id="Laag_2" data-name="Laag 2"><rect class="cls-2" x="72.26" y="154.52" width="148.52" height="100.34"/><path class="cls-5" d="M210.08,56.72c-.29.21-1.36,1-1.82,1.34A83.55,83.55,0,0,1,200.33,63l-1.29.68V48.89h0c0-.43,0-.86,0-1.29,0-21.54-24.07-39-53.76-39s-53.75,17.47-53.75,39c0,.43,0,.86,0,1.29h0V63.05c-3-1.53-6-3.17-8.79-5-.94-.6-6.26-4.46-2.79-1.77-3.23-2.5-7.45-3.09-10.61,0-2.61,2.55-3.2,8.13,0,10.6C83.21,77.65,100.73,84.42,117.75,88c28.95,6.09,59.88,3.06,86.48-10.18a79.84,79.84,0,0,0,16.22-10.31C227.74,61.31,217.39,50.91,210.08,56.72Z"/></g><g id="Laag_4" data-name="Laag 4"><rect class="cls-5" x="128.2" y="95.12" width="37.13" height="8.07"/><circle class="cls-6" cx="114.33" cy="116.92" r="23.77"/><path class="cls-5" d="M114.33,89.69a27.23,27.23,0,1,0,27.23,27.23A27.23,27.23,0,0,0,114.33,89.69Zm0,49a21.8,21.8,0,1,1,21.8-21.8A21.8,21.8,0,0,1,114.33,138.72Z"/><circle class="cls-4" cx="114.33" cy="116.92" r="16.51"/><circle class="cls-5" cx="114.33" cy="116.92" r="5.94"/><circle class="cls-6" cx="176.57" cy="116.92" r="23.77"/><path class="cls-5" d="M176.57,89.69a27.23,27.23,0,1,0,27.22,27.23A27.23,27.23,0,0,0,176.57,89.69Zm0,49a21.8,21.8,0,1,1,21.79-21.8A21.8,21.8,0,0,1,176.57,138.72Z"/><circle class="cls-4" cx="176.57" cy="116.92" r="16.51"/><circle class="cls-5" cx="176.57" cy="116.92" r="5.94"/><circle class="cls-3" cx="145.45" cy="134.97" r="6.36"/><path class="cls-5" d="M143.23,145.94s-37.9-10.77-44.51,28.25c-.49,3.5-3,11.22-18.11,15.59,6.4,1.6,20.53,7.57,31.31-7.43C121.82,167.5,127.35,147.69,143.23,145.94Z"/><path class="cls-5" d="M147.67,145.94s37.9-10.77,44.51,28.25c.49,3.5,3,11.22,18.11,15.59-6.41,1.6-20.53,7.57-31.31-7.43C169.08,167.5,163.54,147.69,147.67,145.94Z"/></g></svg>