<?xml version="1.0" encoding="utf-8"?>
<!-- Generator: Adobe Illustrator 22.1.0, SVG Export Plug-In . SVG Version: 6.00 Build 0)  -->
<svg version="1.1" id="Laag_1" xmlns="http://www.w3.org/2000/svg" xmlns:xlink="http://www.w3.org/1999/xlink" x="0px" y="0px"
	 viewBox="0 0 238.8 218.5" style="enable-background:new 0 0 238.8 218.5;" xml:space="preserve">
<style type="text/css">
	.st0{fill:#961868;}
	.st1{fill:#060709;}
	.st2{fill:#F5FC8D;}
	.st3{fill:#BDC90C;}
	.st4{fill:#B5DFEE;}
	.st5{fill:#F6D819;}
	.st6{fill:#FCFCFC;}
	.st7{fill:#141524;}
	.st8{fill:#12A5D4;}
</style>
<g id="Laag_3">
	<g>
		<path class="st0" d="M90.9,199.8c-3.4,0-6.9,0-10.3,0c-1.4-0.4-2.9-0.4-4.4-0.6c-12.5-1.7-23.7-6.4-33.7-14
			C31,176.3,23,164.9,18.4,151.1c-1.8-5.3-2.8-10.8-3.2-16.3c-1-12.9,1.2-25.1,7-36.6c8.5-17,21.8-28.8,39.6-35.4
			c4.3-1.6,8.7-2.7,13.2-3.3c0.6-0.1,0.8-0.3,0.9-0.9c0.5-3.4,1-6.8,1.9-10.2c2.5-9.7,9.6-15,18.6-16.2c6.9-0.9,13,3,15.3,9.5
			c0.2,0.5,0.4,1,0.9,1.3c1.7,1.4,2.3,3.4,2.8,5.4c0.1,0.6,0.4,1,0.9,1.2c2.7,1.5,3.2,3.5,1.4,6.1c-1.4,2.1-3.3,3.7-5.4,5
			c-0.9,0.6-0.9,1.4-1.2,2.2c-0.1,0.3,0.2,0.4,0.4,0.5c5,2,9.8,4.5,14.3,7.6c3.1-11.4,6.2-22.6,9.3-33.9c0.1,0,0.1,0,0.2,0
			c1.2,5.8,2.5,11.6,3.8,17.7c6.5-12.6,13-25,19.4-37.4c0.1,0,0.2,0,0.2,0c0.6,8.1,1.2,16.1,1.8,24.5c8.1-7.2,16.1-14.3,24-21.4
			c0,0,0.1,0.1,0.2,0.1c-3.2,9.9-6.3,19.8-9.5,30.1c10.5-6.6,20.6-13,30.8-19.4c0,0,0.1,0.1,0.1,0.1c-3.7,7.4-7.4,14.8-11.3,22.5
			c9.9-3.4,19.6-6.7,29.2-10c0,0,0.1,0.1,0.1,0.2c-7.3,7.8-14.6,15.7-22,23.7c10.6,0,20.9,0,31.2,0c0,0.1,0,0.1,0.1,0.2
			c-8.6,4.4-17.2,8.8-25.9,13.3c8.8,2.2,17.3,4.3,26.1,6.5c-9.7,5.1-19.2,9.9-28.8,15c7.6,3.6,15.1,7.2,22.6,10.7c0,0.1,0,0.1,0,0.2
			c-8.6,1.1-17.3,2.3-26.3,3.5c6.2,5.3,12.1,10.4,18.1,15.5c0,0.1,0,0.1,0,0.2c-10.1-1.1-20.2-2.3-30.7-3.5
			c5.3,7.4,10.3,14.6,15.3,21.7c0,0-0.1,0.1-0.1,0.1c-9.7-4.4-19.4-8.8-29.3-13.3c2.5,6.3,5,12.3,7.5,18.4c-0.5,0-0.8-0.3-1.1-0.5
			c-8.1-5.4-16.1-10.8-24.2-16.1c-1.1-0.7-1,0-1.1,0.7c-1.1,7.3-3.4,14.3-6.8,20.9c-8.7,16.6-21.9,28.1-39.6,34.5
			c-5.7,2.1-11.6,3.2-17.7,3.7C91.2,199.7,91,199.7,90.9,199.8z M193.5,143c0.1,0,0.2,0.1,0.3,0.1c0,0,0,0,0-0.1
			C193.8,143,193.7,143,193.5,143c0-0.5-0.1-0.7-0.3-1c-2.6-3.7-5.3-7.4-7.9-11.1c-1.3-1.8-2.5-3.6-3.9-5.5c9.2,1.1,18.1,2.1,27,3.1
			c0-0.1,0.1-0.2,0.1-0.3c-5.1-4.3-10.1-8.7-15.4-13.2c7.7-1,15.1-2,22.5-3c0,0,0-0.1,0-0.2c-6.1-2.9-12.1-5.7-18.4-8.7
			c9-4.7,17.8-9.2,26.6-13.8c0-0.1,0-0.2,0-0.2c-8.5-2.1-17.1-4.2-25.8-6.4c7.4-3.8,14.5-7.4,21.7-11.1c0-0.1,0-0.2-0.1-0.2
			c-8.3,0-16.5,0-24.9,0c6-6.5,11.9-12.9,17.8-19.2c0-0.1-0.1-0.2-0.2-0.3c-7.9,2.7-15.9,5.4-24.1,8.2c3.3-6.6,6.5-12.9,9.7-19.4
			c-9.7,6.1-19,12-28.6,18.1c2.9-9.2,5.7-18.2,8.6-27.1c-0.1,0-0.1-0.1-0.2-0.1c-6.5,5.8-13.1,11.7-19.8,17.7
			c-0.5-6.7-1-13.1-1.4-19.5c-0.1,0-0.1,0-0.2,0C150,41.2,144,52.9,137.8,64.8c-1-4.6-1.9-9-2.8-13.3c-0.1,0-0.1,0-0.2,0
			c-1.9,6.8-3.7,13.5-5.5,20.3c0.1,0,0.2,0.1,0.3,0.1c1.8-1.4,3.5-2.9,5.3-4.3c6.8-5.5,13.5-11,20.3-16.6c0.3-0.2,0.6-0.3,1-0.2
			c1.3,0.4,2.7,0.8,4,1.3c2.3,1,4.4,2.1,5.4,4.7c2,5,2.2,10,0.7,15.2c-0.8,2.8-2.2,5.4-4.7,6.9c-5,3-10,5.9-15.1,8.8
			c-2.4,1.4-2.4,1.3-1,3.7c0.4,0.6,0.6,0.7,1.2,0.3c5.2-3.4,10.5-6.8,15.7-10.1c6.8-4.4,13.7-8.9,20.5-13.3c0.5-0.3,1-0.5,1.5-0.3
			c7.2,2,10.6,6.8,10.7,13.8c0,3.2-0.7,6.2-2,9.1c-1.3,2.9-3.2,5.3-6.4,6.4c-1.3,0.4-2.6,1.1-4,1.7c0.2,0.3,0.3,0.6,0.5,0.9
			c2.5,3.3,2.9,6.9,1.5,10.8c-1.7,4.5-5,7.5-9.6,9.1c-5.9,2-11.9,4-17.8,5.9c-0.8,0.2-1.1,0.6-1.1,1.5c0,2.5,0.2,5.1-0.2,7.6
			c-0.1,0.7,0.3,1,0.8,1.3c4.1,2.8,8.1,5.6,12.1,8.4c1.8,1.2,3.6,2.5,5.7,3.9c-2.3-5.6-4.4-10.9-6.7-16.4c5.7,2.6,11.1,5.1,16.5,7.5
			C187.5,140.4,190.5,141.7,193.5,143z M175.4,98.5c0.1-0.3,0.4-0.3,0.6-0.4c3.2-1.4,6.5-2.8,9.7-4.2c0.5-0.2,0.9-0.4,1.3-0.8
			c3.3-3.8,5.2-8.1,4.7-13.2c-0.4-4.2-2.1-7.4-6.4-8.7c-0.9-0.2-1.5-0.2-2.2,0.3c-14.8,9.6-29.6,19.2-44.3,28.8
			c-1.9,1.2-3.3,1.5-5.4,0.5c-1.8-0.9-3.1-1.7-3.3-3.7c-0.1-0.7-0.3-1.4-0.7-2.1c-0.4-0.8-0.1-1.2,0.6-1.6
			c8.8-5.1,17.6-10.2,26.5-15.3c1-0.5,2-0.9,2.8-1.7c3.3-3.7,5.4-8,4.9-13c-0.6-5.8-2-7.4-6.8-9c-0.1,0-0.2,0-0.3-0.1
			c-0.6-0.3-1-0.1-1.5,0.3c-10.6,8.6-21.3,17.3-31.9,26c-0.6,0.5-0.9,0.5-1.4-0.1c-1.3-1.7-3-3.1-4.8-4.3c-3.5-2.4-7.3-4.1-11.1-5.8
			c-0.7-0.3-0.8-0.6-0.5-1.2c0.6-1.3,0.9-2.7,1-4.1c0-1.2,0.1-2.3,1.1-3.2c0.4-0.3,0.4-0.9,0.5-1.4c0.1-0.7,0.4-1.2,1.1-1.6
			c1.9-1.1,3.7-2.3,5.2-4c1.1-1.3,0.9-2.4-0.8-2.8c-1-0.2-1.2-0.8-1.3-1.6c-0.4-2.2-0.9-4.5-3-5.8c-0.4-0.2-0.4-0.7-0.6-1.1
			c-1.8-5.9-6.7-9.1-12.8-8.1c-7.5,1.1-12.4,5.5-15.4,12.3c-1.7,3.8-1.2,8-2.2,12c-0.3,1.3,0.6,2.1,2,2.2c0.7,0,0.7,0.4,0.7,0.9
			c-0.1,1.1-0.1,2.2,0.6,3.1c1.1,1.2,0.7,2.4,0.4,3.7c0,0.2-0.1,0.6-0.4,0.6c-1.4,0.1-2.4,1.1-3.6,1.5c-2.4,0.8-4.9,1.8-7.5,1.7
			c-1.5,0-3,0.4-4.3,1.2c-2.5,1.4-4.2,3.7-5.5,6.2c-2,3.9-2.9,8-3.4,12.2c-0.1,0.7-0.3,1.2-0.8,1.8c-2,2.2-3.5,4.8-4.1,7.7
			c-0.3,1.5-0.3,3,0.9,4.2c1,1.1,1.1,1.6,0.1,2.9c-1.7,2.1-2.9,4.4-3.7,6.9c-1.6,5.1-2,10.3-1.9,15.6c0,2.1-0.4,3.7-2.1,4.9
			c-0.5,0.3-0.8,0.7-0.7,1.4c0.1,0.8-0.2,1.5-0.6,2.2c-0.5,0.8-1,1.5-1.4,2.3c-3.9,6.9-6.5,14.2-6.1,22.2c0,1.4,0.1,2.8,1.1,3.9
			c0.2,0.2,0.2,0.6,0.2,0.9c0.6,7,4.2,12.1,9.8,15.9c7.8,5.2,16.3,8.6,25.6,10.2c1,0.2,1.4,0,2-0.8c5.2-7.3,10.4-14.5,15.5-21.8
			c0.6-0.8,0.9-0.8,1.6-0.2c6.5,5.5,13.2,11.1,19.7,16.7c0.9,0.8,1.5,0.8,2.6,0.3c8.9-4.4,16.5-10.5,22.8-18.2
			c0.5-0.6,0.5-1.1,0-1.7c-2.1-2.9-4.3-5.7-6.5-8.5c-3.3-4.2-6.7-8.3-10.3-12.2c-0.6-0.6-0.5-0.9,0.2-1.2c0.2-0.1,0.4-0.2,0.7-0.3
			c7-3.8,11.4-9.6,12.5-17.5c0.1-0.8,0.6-0.9,1.1-1.1c12.9-4.3,25.7-8.6,38.6-12.9c1.7-0.6,3.2-1.4,4.5-2.6c3.1-2.9,4.1-8,2.2-11.5
			C180.1,99.8,178,98.8,175.4,98.5z M36.2,175c-0.2-1.8-0.2-3.5-0.8-5.2c-1.4-4.4-1.5-9-0.6-13.5c1.1-6.1,3.7-11.6,6.9-16.8
			c0.5-0.8,0.9-1.6,0.7-2.5c-0.1-0.6,0.1-1.1,0.6-1.4c0.5-0.4,0.9-0.9,1.3-1.3c0.6-0.5,0.8-1.1,0.8-1.8c0-2.9,0-5.8,0.4-8.6
			c0.6-5.4,1.8-10.7,5-15.2c0.3-0.4,0.3-0.7,0-1.1c-0.7-1.1-1-2.4-0.9-3.8c0.1-3.5,1.5-6.6,3.6-9.3c1.1-1.5,1.6-3.1,2-4.8
			c0.8-4.6,2.2-9.1,4.8-13c2.6-3.8,5.9-6.4,10.8-6.3c1.1,0,2.2-0.4,3.2-0.8c1.4-0.5,2.8-1.1,4.2-1.6c0.9-0.3,1.2-0.5,0.8-1.6
			c-0.4-1.1-0.7-2.2-1.9-2.9c-0.1,0-0.2-0.1-0.2-0.2c-0.4-0.8-1-0.8-1.8-0.7c-13,2.2-24.5,7.5-34.3,16.3
			c-14.3,13-21.9,29.1-22.6,48.3c-0.6,16.5,4.4,31.3,14.7,44.3C33.8,172.7,34.9,173.9,36.2,175z M153.2,131.1c0-0.9,0-2.1,0-3.2
			c0-0.9-0.1-1.2-1.1-0.9c-4.5,1.6-9,3.1-13.6,4.6c-0.6,0.2-0.9,0.5-1,1.1c-1.5,6.9-5.3,12.2-11.1,16.1c-0.8,0.5-0.7,0.8-0.1,1.4
			c4.8,5.5,9.7,11.1,13.9,17.2c0.5,0.7,0.7,0.6,1.1,0C148.9,156.6,152.7,144.5,153.2,131.1z M110.7,192c-0.4-0.3-0.6-0.6-0.9-0.8
			c-5.4-4.6-10.8-9.2-16.2-13.8c-0.7-0.6-1-0.5-1.5,0.2c-3.7,5.1-7.4,10.1-11,15.2c-0.8,1.1-1.6,2.3-2.5,3.6
			C89.6,197.5,100.3,196.1,110.7,192z M109.5,67.8c-0.2,0.7,0.4,0.7,0.8,0.9c4.1,1.9,8,3.9,11.4,6.8c1.6,1.3,1.6,1.3,3.2,0
			c0.8-0.6,0.6-0.9-0.1-1.3c-4.3-3-8.8-5.5-13.7-7.5C109.6,66,110,65.8,109.5,67.8z M134.1,99.6c0.3-0.2,0.6-0.3,0.8-0.5
			c2-1.3,4-2.6,6-3.9c2.5-1.6,2.5-1.6,0.8-4c-0.4-0.6-0.7-0.6-1.3-0.2c-1.5,0.9-3,1.8-4.5,2.6c-1,0.6-2.5,0.9-2.8,1.9
			c-0.3,1,0.5,2.3,0.8,3.4c0,0.1,0.1,0.3,0.1,0.4C134,99.5,134,99.5,134.1,99.6z M36.3,175.2C36.3,175.2,36.3,175.2,36.3,175.2
			C36.3,175.2,36.3,175.2,36.3,175.2C36.4,175.2,36.4,175.2,36.3,175.2C36.3,175.2,36.3,175.2,36.3,175.2z"/>
		<path class="st1" d="M175.4,98.5c2.6,0.2,4.6,1.3,5.9,3.6c1.9,3.4,0.9,8.6-2.2,11.5c-1.3,1.2-2.8,2.1-4.5,2.6
			c-12.9,4.3-25.7,8.6-38.6,12.9c-0.5,0.2-1.1,0.3-1.1,1.1c-1.1,8-5.5,13.7-12.5,17.5c-0.2,0.1-0.4,0.3-0.7,0.3
			c-0.8,0.3-0.8,0.5-0.2,1.2c3.5,4,6.9,8.1,10.3,12.2c2.2,2.8,4.4,5.6,6.5,8.5c0.4,0.6,0.5,1.1,0,1.7c-6.3,7.7-14,13.8-22.8,18.2
			c-1,0.5-1.7,0.4-2.6-0.3c-6.5-5.6-13.1-11.1-19.7-16.7c-0.7-0.6-1-0.7-1.6,0.2c-5.2,7.3-10.4,14.5-15.5,21.8c-0.5,0.8-1,1-2,0.8
			c-9.2-1.6-17.8-5-25.6-10.2c-5.7-3.8-9.3-8.9-9.8-15.9c0-0.3,0-0.7-0.2-0.9c-1-1.1-1-2.5-1.1-3.9c-0.4-8.1,2.2-15.3,6.1-22.2
			c0.4-0.8,0.9-1.6,1.4-2.3c0.4-0.7,0.8-1.3,0.6-2.2c-0.1-0.6,0.2-1.1,0.7-1.4c1.7-1.2,2.1-2.8,2.1-4.9c-0.1-5.3,0.2-10.5,1.9-15.6
			c0.8-2.5,2-4.8,3.7-6.9c1-1.2,1-1.7-0.1-2.9c-1.1-1.2-1.1-2.7-0.9-4.2c0.6-3,2.1-5.5,4.1-7.7c0.5-0.6,0.7-1.1,0.8-1.8
			c0.5-4.3,1.4-8.4,3.4-12.2c1.3-2.5,3-4.8,5.5-6.2c1.3-0.8,2.7-1.2,4.3-1.2c2.6,0,5.1-0.9,7.5-1.7c1.2-0.4,2.2-1.4,3.6-1.5
			c0.3,0,0.4-0.3,0.4-0.6c0.2-1.2,0.7-2.5-0.4-3.7c-0.7-0.8-0.6-2-0.6-3.1c0-0.5,0-0.9-0.7-0.9c-1.4-0.1-2.2-0.9-2-2.2
			c0.9-4,0.4-8.2,2.2-12c3-6.8,8-11.1,15.4-12.3c6-1,10.9,2.2,12.8,8.1c0.1,0.4,0.1,0.9,0.6,1.1c2.2,1.3,2.6,3.6,3,5.8
			c0.1,0.9,0.4,1.4,1.3,1.6c1.7,0.4,2,1.5,0.8,2.8c-1.4,1.7-3.3,2.9-5.2,4c-0.7,0.4-1,0.9-1.1,1.6c0,0.5-0.1,1.1-0.5,1.4
			c-1,0.9-1.1,2-1.1,3.2c0,1.4-0.3,2.8-1,4.1c-0.3,0.6-0.2,0.9,0.5,1.2c3.8,1.7,7.6,3.4,11.1,5.8c1.8,1.2,3.4,2.6,4.8,4.3
			c0.5,0.6,0.8,0.7,1.4,0.1c10.6-8.7,21.3-17.3,31.9-26c0.5-0.4,0.9-0.5,1.5-0.3c0.1,0,0.2,0,0.3,0.1c4.8,1.6,6.2,3.2,6.8,9
			c0.5,5-1.5,9.3-4.9,13c-0.7,0.8-1.8,1.2-2.8,1.7c-8.8,5.1-17.6,10.2-26.5,15.3c-0.8,0.4-1,0.8-0.6,1.6c0.3,0.7,0.6,1.4,0.7,2.1
			c0.2,2.1,1.6,2.9,3.3,3.7c2.1,1,3.5,0.7,5.4-0.5c14.8-9.7,29.6-19.2,44.3-28.8c0.8-0.5,1.4-0.5,2.2-0.3c4.3,1.3,6,4.5,6.4,8.7
			c0.5,5.1-1.4,9.4-4.7,13.2c-0.3,0.4-0.8,0.6-1.3,0.8c-3.2,1.4-6.5,2.8-9.7,4.2C175.8,98.2,175.6,98.2,175.4,98.5z M92.8,88.4
			c2-1.3,3.9-2.8,6.2-3.3c1-0.2,1.2-0.6,1.1-1.4c-0.2-1.1,0.2-1.8,1.2-2.4c1.2-0.7,2.4-1.6,3.6-2.4c0.3-0.2,0.5-0.4,0.5-0.9
			c-0.2-1.9-0.3-3.8-0.5-5.9c-0.9,1.4-1.9,2.5-2,4.1c-0.1,1.8-1.6,3-2.9,4c-0.8,0.6-1.7,1-2.3,1.6c-1.8,2.1-3.4,4.3-5.1,6.4
			c0,0-0.2,0.1-0.1,0.2C92.6,88.6,92.7,88.5,92.8,88.4z M81.7,52.6c-0.8,0.9-0.7,1.9-0.6,3.1c1.8-1.3,3.5-2.2,5.4-3
			c-1.2,0.9-2.5,1.8-3.8,2.6c-1.6,0.9-2.2,2.2-2,4c2.8-2.3,6-3.8,9.2-5.1c1.1-0.5,2.2-0.5,3.4-0.3c5.3,0.8,10.7,1.5,16.1,1.2
			c1.8-0.1,3.5-0.3,5-1.7c-1-0.9-2.1-1.2-3.3-1.4c-6.4-1.1-12.8-1.7-19.3-1.4c-0.1,0-0.2-0.1-0.4-0.1h0c2.1-0.8,4.3-1,6.5-1.1
			c-0.7-4.1-3.1-6.7-6.8-8.5c1.5-0.2,2.7,0.3,3.7,1.1c0.9,0.7,1.6,1.6,2.2,2.6c0.2,0.3,0.4,0.7,0.9,0.8c0.9,0.2,1.3,0.8,1.5,1.6
			c0.1,0.5,0.4,1,0.6,1.5c0.2,0.6,0.4,0.9,1.1,0.9c1.5,0.1,3,0.3,4.4,0.5c1.8,0.3,3.6,0.6,5.4,0.9c0.2,0,0.8,0.3,0.6-0.3
			c-0.6-1.8-0.6-4-2.5-5.1c-0.4-0.2-0.6-0.6-0.8-1c-0.3-0.8-0.6-1.5-1-2.2c-2.2-3.9-5.4-5.9-9.9-5.6c-7.4,0.5-14.6,7.5-15.9,15.7
			c0,0.2,0.2,0,0.3,0C81.6,52.5,81.7,52.5,81.7,52.6z M109.5,92.1c-3.5-1.5-6.8-2.9-10.1-4.3c-1.5-0.6-2.7,0-3.5,1.3
			c-0.3,0.6-0.6,1.2-0.8,1.8c-1,3.4-2,6.7-3,10.1c-0.4,1.4-0.5,2.8-0.5,4.2c0,0.7,0.2,1.3,0.6,2c2,3,3.9,6.2,5.9,9.2
			c1.7,2.4,2.2,5,1.4,8c-1.3,4.8-2.5,9.6-3.7,14.4c-0.7,2.8,0.3,4.3,3.1,4.9c4.3,0.9,8.7,1.6,13,2.7c4.5,1.1,6.9,0,8.2-4.6
			c0.8-2.7,1.8-5.4,2.7-8.1c-0.4,0.1-0.7,0.2-1,0.3c-2.7,0.8-5.3,2-8.1,2.5c-2.5,0.5-4.6-1-5.1-3.5c-0.4-2.2,0.7-4.3,2.8-5.4
			c3.3-1.6,6.7-3.2,10-4.8c4.8-2.3,9.7-4.6,14.5-7c0.3-0.1,0.9-0.2,0.7-0.9c-1.4,0.6-2.8,1.1-4.2,1.8c-0.5,0.2-1,0.3-1.5,0.1
			c-0.8-0.1-1.6-0.4-2.3-0.5c-0.9-0.1-1-0.4-1-1.3c0.2-2.4,0.4-4.9,0.6-7.3c0-0.7,0.2-1.1,0.9-1.5c1.8-1.1,3.4-2.2,5.4-3.4
			c-3.9-1.7-7.5-3.2-11.2-4.8c-0.7-0.3-1.1-0.2-1.7,0.1c-4.3,2.5-8.6,5-12.8,7.5c-0.4,0.2-0.8,0.5-1.3,0.3c-1.1-0.4-2.2-0.9-3.2-1.2
			c-0.4-0.1-0.5-0.4-0.5-0.8c0.2-2.4,0.5-4.8,0.7-7.2c0-0.6,0.3-0.9,0.7-1.2C106.7,94.4,108,93.3,109.5,92.1z M66.2,114.8
			c0.7-0.5,1.5-0.9,2.1-1.5c1.6-1.9,2.3-4.1,2.8-6.5c0.1-0.4-0.1-0.5-0.3-0.8c-1.6-1.6-3.5-2.7-5.7-3.2c-0.5-0.1-0.8-0.1-0.9,0.5
			c-0.5,2.4-0.8,4.7-0.5,7.2c0.1,1.2,0.3,2.4,0.6,3.9c-2.2-3.4-3.2-7.2-2.6-10.9c0.1-0.8-0.1-0.8-0.8-0.7c-1.1,0.2-2.1,0.6-3.1,0.8
			c-1.3,0.3-1.9,1.2-2,2.5c-0.2,2.1-0.4,4.2-0.6,6.3c-0.2-0.5-0.4-1-0.6-1.6c-0.1,0.1-0.2,0.1-0.3,0.2c-0.2,0.3-0.5,0.6-0.7,0.9
			c-1.7,2.4-2.8,5.1-3.5,7.9c-1.4,5.7-1.5,11.5-1.2,17.3c0,1.3,0.3,2.7,0.1,4c-0.5,3.4-0.9,6.9-1,10.4c-0.2,4.5,0.5,8.8,3.3,12.5
			c0.7,0.9,1.3,1.9,1.9,2.8c0.8,1.3,1.9,2.2,3.3,2.6c1.6,0.6,3.2,1.1,4.9,1.3c1,0.2,2.1,0.3,2.9-0.6c1.4-1.5,2.2-3.4,3.5-5
			c-1.1,0.1-2.5-0.3-3.2,0.6c-1.3,1.8-2.6,1.8-4.3,0.7c-0.5-0.3-1.1-0.5-1.6-0.7c-0.2-0.1-0.5-0.2-0.7-0.5c-0.7-1.4-1.1-2.9-1-4.5
			c0.1-0.7,0.2-1.5,1.1-1.6c0.7-0.1,1.2,0.4,1.6,1c0.9,1.2,1.8,2.4,3.1,3.2c0.6,0.4,1.2,0.7,1.9,0.7c1.1,0,1.6-0.6,1.1-1.5
			c-2-3.4-3.6-7.2-7.5-8.9c-2-0.9-2.4-2.2-1.9-4.1c0-0.2,0.1-0.4,0.1-0.6c0.7-3.1,2.2-5.8,3.7-8.6c2.3-4.4,5-8.6,7-13.2
			c1.5-3.3,2.7-6.7,2.5-10.5c0-0.7,0.1-1.3,0.5-2c0.8-1.3,1.4-2.7,1.5-4.6C70.5,112.7,69.7,115.4,66.2,114.8z M129.6,113.9
			c0.4-0.2,0.8-0.3,1.1-0.5c16.2-7.4,32.3-14.8,48.6-22.1c2.5-1.1,4.2-2.9,5.3-5.2c1.6-3.2,2.3-6.7,1.5-10.3
			c-0.5-2.2-1.7-2.6-3.6-1.4c-4.8,3-9.5,6-14.3,9c-12.5,7.9-24.9,15.8-37.4,23.7c-0.4,0.3-0.9,0.5-0.9,1.1
			C129.8,110.2,129.7,112,129.6,113.9z M105.8,103c0.5-0.3,0.8-0.5,1.1-0.7c15.2-9.4,30.5-18.9,45.8-28.2c4.3-2.6,7.2-10,5.9-15.2
			c-0.6-2.3-2-2.7-3.8-1.2c-16,12.9-32,25.8-48,38.6c-0.3,0.2-0.6,0.5-0.6,1C105.9,99.2,105.8,101,105.8,103z M178.3,104.6
			c0-1.8-1.1-3.2-2.8-3.6c-1.4-0.3-2.8-0.1-4.2,0.5c-19.5,8.9-39,17.9-58.6,26.8c-1,0.5-1.6,1.2-2,2.2c-0.2,0.5-0.3,1,0.1,1.4
			c0.4,0.5,0.9,0.1,1.3,0c10.5-3.8,21.1-7.5,31.6-11.3c10.1-3.6,20.2-7.2,30.2-10.8C176.5,108.8,178.2,106.8,178.3,104.6z
			 M82.6,62.7c0.1,1.4,0.2,3,1.9,3.6c0.5,0.2,0.7,0.5,0.9,1c0.7,2.2,1.5,4.3,2.7,6.3c1.7,2.8,4,5,6.9,6.5c2.2,1.1,4,0.5,5.4-1.5
			c0.6-0.8,1.1-1.7,1.3-2.7c0.6-2.2,1.6-4.2,2.6-6.2c0.8-1.5,1.4-3.2,1.4-5c0-1.3-0.1-1.3-1.2-0.8c-0.9,0.4-2.2,0.1-2.8-0.7
			c-0.1-0.2-0.1-0.3,0-0.5c0.3-0.6,0.8-1.3,1.5-1.2c0.9,0,1.9-0.8,2.8,0.1c0.1,0.1,0.2,0,0.3-0.1c0.6-0.7,0.1-2.2-0.7-2.4
			c-2.8-0.7-5.6-1.2-8.4-2.1c-2.4-0.7-4.6-0.7-7,0c-1.4,0.4-2.2,1.2-2.9,2.4c-0.7,1.3-1.1,1.4-2.2,0.3c-0.8-0.8-1.5-0.7-2.1,0.3
			C82.8,60.8,82.7,61.7,82.6,62.7z M95.8,127.4c-0.2,0-0.3,0-0.4,0.1c-12.3,7.3-24.6,14.6-36.8,22c-1.1,0.7-1.1,1.9,0,2.6
			c0.5,0.3,1,0.5,1.3,0.9c0.5,0.5,1,0.5,1.6,0.2c10-4.4,20.1-8.8,30.2-13.1c1.4-0.6,2.2-1.3,2.3-2.9
			C94.5,133.9,95.2,130.7,95.8,127.4z M119.9,147.5c-2.1,0.4-4.2,0.9-6.3,1.3c-8,1.7-8,1.7-13.7,0c-0.2,0-0.3-0.1-0.5-0.2
			c-2.2-0.8-4.5-0.7-6.7,0c-2.8,0.9-5.6,1-8.4,0.7c-0.7,0-1.5-0.1-2.2-0.1c-0.9,0.1-1.2,0.8-0.9,1.6c0.2,0.6,0.7,1,1.2,1.3
			c1.1,0.6,2.2,0.6,3.4,0.5c1.2,0,2.4-0.1,3.6-0.2c0.6,0,1.3,0,1.5,0.7c0.2,0.7-0.3,1.1-0.8,1.5c-1,0.9-2.2,1.4-3.4,2.1
			c-0.6,0.3-1.1,0.3-1.6,0c-1.8-1.1-3.7-1.9-5.8-2.4c-0.9-0.2-1.8-0.3-2.7-0.1c-0.5,0.1-0.9,0.3-1,0.9c-0.1,0.5,0.1,0.9,0.5,1.2
			c0.9,0.8,1.7,0.7,2.3-0.3c0.3,0.4,0.1,0.8,0,1.1c-0.1,0.1-0.4,0.2,0,0.4c2.2,1.2,4.2,3,6.6,3.8c0.8,0.3,1.5,0.2,2.3,0
			c3.9-1.1,7.3-3,10.7-5.2c0.5-0.3,1.1-0.6,1.7-0.8C106.7,153.7,113.4,151,119.9,147.5z M62.1,140.6c1.3-0.9,2.4-1.7,3.6-2.4
			c9.6-6.5,19.1-13.1,28.6-19.7c0.6-0.4,0.9-0.7,0.3-1.4c-1.2-1.5-2.4-3-3.5-4.6c-0.4-0.6-0.7-0.6-1.2-0.1
			c-7.4,6.2-14.8,12.4-22.2,18.6c-0.2,0.2-0.5,0.4-0.7,0.7C65.4,134.5,63.8,137.4,62.1,140.6z M69.1,88.9c0,0,0.1,0.1,0.1,0.2
			c-0.5,0.6-1.1,1.3-1.6,1.9c-0.7,0.9-1.4,1.9-1.7,3.1c-0.1,0.3-0.3,0.8,0.4,0.7c2.5,0,4.4,1.4,6.3,2.8c0.4,0.3,0.8,0.7,1.3,1
			c0-0.6,0.1-1.1,0.1-1.6c0.5-5.4,0.9-10.7,0.3-16.1c-0.2-1.7-0.4-3.5-1.3-5c-0.3-0.6-0.7-1.2-1.6-1.3c-2.4-0.2-4.5,0.5-6.2,2.2
			c-1.6,1.7-2.1,4-2.6,6.1c-0.1,0.6-0.2,1.2,0.3,1.7c0.5,0.4,1.1,0.2,1.7,0c0.9-0.4,1.8-1,2.9-1.5c-0.3,0.6-0.5,1-0.7,1.4
			c-0.7,1.2-1.2,2.5-1.6,3.9c-0.1,0.5-0.3,1.1,0.2,1.5c0.5,0.4,1,0.1,1.4,0C67.8,89.7,68.4,89.3,69.1,88.9z M91.4,95.1
			c-0.5,0-0.7,0.3-0.9,0.6c-5,4.8-10,9.6-15,14.4c-1.2,1.2-2.5,2.2-2.9,4.1c-0.1,0.5-0.5,1.1-0.8,1.5c-0.1,0.2-0.3,0.5-0.3,0.8
			c0.1,1.9-0.2,3.8-0.7,5.7c0.1,0,0.1,0,0.2,0c5.9-4.8,11.8-9.7,17.6-14.5c0.3-0.2,0.4-0.5,0.4-1c0-2.9,0.5-5.7,1.4-8.5
			C90.7,97.2,91.3,96.3,91.4,95.1z M54.1,104.2c0.4,0,0.5-0.2,0.7-0.4c2.9-2.5,6.3-3.1,9.9-2.1c2.8,0.8,5.3,2.2,7.5,3.8
			c0.9,0.6,1.4,0.3,1.9-0.3c0.3-0.4,0.5-0.8,0.5-1.3c0.3-2.1-0.3-3.9-2-5.1c-2.6-1.8-5.4-3.2-8.5-3.9c-2.6-0.6-5.1-0.3-7,1.6
			C55.2,98.6,54.5,101.4,54.1,104.2z M83.7,67.8c-1,2.9-1.8,5.7-1.5,8.7c0.2,3,0.8,5.8,3.3,7.9c1.9,1.5,3.3,1.3,4.5-0.8
			c0.4-0.6,0.5-1.1-0.1-1.7c-0.9-0.9-1.5-2.1-2.1-3.2c-1.5-3-2.4-6.2-3.1-9.5C84.7,68.5,84.4,68,83.7,67.8z M88.2,91.1
			c-2.3-2.5-4.6-5.1-6.2-8.2c-1.6-3.2-2.4-6.5-1.9-10c-2.3,3.3-3.8,6.8-3.9,10.9c0,0.7,0.3,0.6,0.7,0.5c1.1-0.2,2.1-0.4,3.2-0.6
			c-0.1,1.1-1.1,1.9-0.6,2.7c0.5,0.8,1.4,1.2,2.2,1.8C83.8,89.5,85.9,90.6,88.2,91.1z M48.8,179.2c1-3.4,1.9-6.8,2.8-10.1
			c0-0.2,0.1-0.4-0.1-0.5c-0.3-0.1-0.6-0.2-0.8,0c-0.7,0.4-1.5,0.9-1.9,1.6c-0.6,1.2-1.5,1.7-2.6,2c-0.4,0.1-0.6,0.3-0.5,0.8
			C46.2,175.2,47.2,177.2,48.8,179.2z M84.3,161.8c-1.3-0.7-2.4-1.4-3.6-2.1c-1.2-0.7-2.4-1.3-3.8-2.1c0.8,1.5,1.5,2.8,2.2,4.1
			c0.1,0.3,0.3,0.4,0.7,0.4C81.3,162,82.8,162.1,84.3,161.8z M48.2,136.5c-1.6,1.1-2,3.2-1.1,5.2c0.4-0.4,1.1-0.5,1.1-1.2
			C48.2,139.2,48.2,137.9,48.2,136.5z M77.2,159.3c-0.1,0-0.1,0-0.2,0c0,0.4,0,0.9-0.1,1.3c-0.1,1.4,0.2,1.6,1.5,1.1
			C78,160.9,77.6,160,77.2,159.3z M139.6,113.8c0,0.1,0.1,0.2,0.1,0.3c1.3-0.6,2.6-1.2,3.9-1.9C142.2,112.6,140.9,113.2,139.6,113.8
			z"/>
		<path class="st2" d="M193.5,143c-3-1.3-6-2.6-9-4c-5.4-2.4-10.8-4.9-16.5-7.5c2.2,5.5,4.4,10.8,6.7,16.4c-2.1-1.4-3.9-2.6-5.7-3.9
			c-4.1-2.8-8.1-5.6-12.1-8.4c-0.5-0.3-0.9-0.6-0.8-1.3c0.4-2.5,0.2-5.1,0.2-7.6c0-0.9,0.2-1.2,1.1-1.5c6-2,11.9-3.9,17.8-5.9
			c4.6-1.6,7.8-4.6,9.6-9.1c1.4-3.8,1.1-7.5-1.5-10.8c-0.2-0.2-0.3-0.5-0.5-0.9c1.3-0.6,2.6-1.3,4-1.7c3.2-1.1,5.1-3.4,6.4-6.4
			c1.3-2.9,2.1-6,2-9.1c-0.1-7-3.5-11.8-10.7-13.8c-0.6-0.1-1.1,0-1.5,0.3c-6.8,4.4-13.7,8.9-20.5,13.3c-5.2,3.4-10.5,6.7-15.7,10.1
			c-0.6,0.4-0.8,0.3-1.2-0.3c-1.5-2.3-1.5-2.3,1-3.7c5.1-2.9,10.1-5.8,15.1-8.8c2.5-1.5,3.9-4.1,4.7-6.9c1.5-5.1,1.3-10.2-0.7-15.2
			c-1.1-2.6-3.1-3.8-5.4-4.7c-1.3-0.5-2.6-0.8-4-1.3c-0.4-0.1-0.7,0-1,0.2c-6.8,5.5-13.5,11-20.3,16.6c-1.8,1.4-3.5,2.9-5.3,4.3
			c-0.1,0-0.2-0.1-0.3-0.1c1.9-6.8,3.7-13.5,5.5-20.3c0.1,0,0.1,0,0.2,0c0.9,4.3,1.9,8.7,2.8,13.3c6.2-11.9,12.3-23.6,18.3-35.3
			c0.1,0,0.1,0,0.2,0c0.5,6.4,1,12.8,1.4,19.5c6.7-6,13.3-11.8,19.8-17.7c0.1,0,0.1,0.1,0.2,0.1c-2.8,8.9-5.6,17.9-8.6,27.1
			c9.6-6.1,19-12,28.6-18.1c-3.3,6.5-6.5,12.8-9.7,19.4c8.2-2.8,16.1-5.5,24.1-8.2c0,0.1,0.1,0.2,0.2,0.3
			c-5.9,6.4-11.8,12.7-17.8,19.2c8.5,0,16.7,0,24.9,0c0,0.1,0,0.2,0.1,0.2c-7.1,3.6-14.3,7.3-21.7,11.1c8.8,2.2,17.3,4.3,25.8,6.4
			c0,0.1,0,0.2,0,0.2c-8.8,4.5-17.6,9.1-26.6,13.8c6.3,3,12.4,5.9,18.4,8.7c0,0,0,0.1,0,0.2c-7.4,1-14.8,2-22.5,3
			c5.3,4.5,10.3,8.9,15.4,13.2c0,0.1-0.1,0.2-0.1,0.3c-8.9-1-17.9-2.1-27-3.1c1.4,2,2.6,3.8,3.9,5.5c2.6,3.7,5.3,7.5,7.9,11.1
			c0.2,0.3,0.4,0.5,0.4,0.9C193.6,143,193.5,143,193.5,143z"/>
		<path class="st3" d="M36.2,175c-1.3-1.1-2.3-2.4-3.4-3.7c-10.2-13-15.3-27.8-14.7-44.3c0.7-19.2,8.3-35.3,22.6-48.2
			c9.7-8.8,21.3-14.2,34.3-16.3c0.8-0.1,1.4-0.1,1.8,0.7c0,0.1,0.1,0.2,0.2,0.2c1.2,0.6,1.4,1.7,1.9,2.9c0.4,1.1,0.1,1.3-0.8,1.6
			c-1.4,0.5-2.8,1.1-4.2,1.6c-1,0.4-2.1,0.8-3.2,0.8c-4.9,0-8.3,2.5-10.8,6.3c-2.7,3.9-4,8.4-4.8,13c-0.3,1.8-0.8,3.3-2,4.8
			c-2.1,2.7-3.5,5.8-3.6,9.3c0,1.3,0.2,2.6,0.9,3.8c0.2,0.4,0.2,0.7,0,1.1c-3.2,4.5-4.5,9.7-5,15.2c-0.3,2.9-0.4,5.7-0.4,8.6
			c0,0.8-0.1,1.3-0.8,1.8c-0.5,0.4-0.9,0.9-1.3,1.3c-0.4,0.4-0.7,0.8-0.6,1.4c0.1,1-0.2,1.8-0.7,2.5c-3.2,5.2-5.7,10.8-6.9,16.8
			c-0.9,4.5-0.8,9.1,0.6,13.5C35.9,171.5,35.9,173.3,36.2,175z"/>
		<path class="st3" d="M153.2,131.1c-0.5,13.4-4.4,25.5-11.8,36.4c-0.4,0.7-0.7,0.8-1.1,0c-4.2-6.1-9-11.6-13.9-17.2
			c-0.5-0.6-0.6-0.9,0.1-1.4c5.8-3.9,9.6-9.3,11.1-16.1c0.1-0.6,0.4-0.9,1-1.1c4.5-1.5,9.1-3,13.6-4.6c1-0.3,1.2,0,1.1,0.9
			C153.2,129,153.2,130.2,153.2,131.1z"/>
		<path class="st3" d="M110.7,192c-10.5,4.1-21.1,5.5-32.2,4.4c0.9-1.3,1.7-2.4,2.5-3.6c3.7-5.1,7.4-10.1,11-15.2
			c0.5-0.7,0.8-0.8,1.5-0.2c5.4,4.6,10.8,9.2,16.2,13.8C110.1,191.4,110.3,191.7,110.7,192z"/>
		<path class="st3" d="M109.5,67.8c0.5-2,0-1.8,1.7-1.1c4.8,2,9.4,4.5,13.7,7.5c0.7,0.5,0.9,0.7,0.1,1.3c-1.7,1.2-1.6,1.3-3.2,0
			c-3.4-2.9-7.4-4.9-11.4-6.8C110,68.5,109.3,68.4,109.5,67.8z"/>
		<path class="st3" d="M134.1,99.6c0-0.1-0.1-0.2-0.1-0.3c0-0.1-0.1-0.3-0.1-0.4c-0.3-1.1-1.1-2.4-0.8-3.4c0.2-1,1.8-1.3,2.8-1.9
			c1.5-0.9,3.1-1.7,4.5-2.6c0.6-0.4,0.9-0.3,1.3,0.2c1.7,2.4,1.7,2.4-0.8,4c-2,1.3-4,2.6-6,3.9C134.6,99.3,134.4,99.5,134.1,99.6z"
			/>
		<path class="st4" d="M193.6,142.9c0.1,0,0.2,0.1,0.3,0.1c0,0,0,0.1,0,0.1C193.7,143.1,193.6,143.1,193.6,142.9
			C193.5,143,193.6,143,193.6,142.9z"/>
		<path class="st5" d="M36.3,175.2L36.3,175.2C36.3,175.2,36.3,175.2,36.3,175.2C36.3,175.2,36.3,175.2,36.3,175.2
			C36.3,175.2,36.3,175.2,36.3,175.2z"/>
		<path class="st6" d="M109.5,92.1c-1.5,1.2-2.8,2.3-4.2,3.4c-0.4,0.3-0.7,0.7-0.7,1.2c-0.2,2.4-0.5,4.8-0.7,7.2
			c0,0.4,0,0.7,0.5,0.8c1.1,0.4,2.2,0.8,3.2,1.2c0.5,0.2,0.9,0,1.3-0.3c4.3-2.5,8.6-5,12.8-7.5c0.6-0.3,1.1-0.4,1.7-0.1
			c3.7,1.6,7.4,3.2,11.2,4.8c-1.9,1.2-3.6,2.3-5.4,3.4c-0.6,0.4-0.8,0.8-0.9,1.5c-0.1,2.4-0.3,4.9-0.6,7.3c-0.1,0.8,0.1,1.2,1,1.3
			c0.8,0.1,1.6,0.3,2.3,0.5c0.5,0.1,1,0.1,1.5-0.1c1.3-0.6,2.7-1.2,4.2-1.8c0.2,0.7-0.3,0.7-0.7,0.9c-4.8,2.3-9.7,4.6-14.5,7
			c-3.3,1.6-6.7,3.2-10,4.8c-2.2,1-3.2,3.2-2.8,5.4c0.4,2.5,2.6,4,5.1,3.5c2.8-0.6,5.4-1.8,8.1-2.5c0.3-0.1,0.5-0.2,1-0.3
			c-1,2.8-2,5.4-2.7,8.1c-1.3,4.6-3.7,5.8-8.2,4.6c-4.3-1.1-8.7-1.8-13-2.7c-2.8-0.6-3.8-2.2-3.1-4.9c1.2-4.8,2.3-9.6,3.7-14.4
			c0.8-3,0.2-5.6-1.4-8c-2.1-3-3.9-6.1-5.9-9.2c-0.4-0.6-0.5-1.3-0.6-2c-0.1-1.4,0-2.8,0.5-4.2c1-3.4,2-6.7,3-10.1
			c0.2-0.6,0.4-1.2,0.8-1.8c0.9-1.4,2-1.9,3.5-1.3C102.7,89.2,106,90.7,109.5,92.1z"/>
		<path class="st6" d="M66.2,114.8c3.4,0.6,4.3-2.1,5.7-4.5c0,1.9-0.7,3.2-1.5,4.6c-0.4,0.6-0.5,1.2-0.5,2c0.2,3.7-1.1,7.2-2.5,10.5
			c-2,4.5-4.6,8.8-7,13.2c-1.5,2.8-3,5.5-3.7,8.6c0,0.2-0.1,0.4-0.1,0.6c-0.5,1.9,0,3.2,1.9,4.1c3.9,1.8,5.6,5.5,7.5,8.9
			c0.5,0.9,0,1.6-1.1,1.5c-0.7,0-1.3-0.3-1.9-0.7c-1.2-0.9-2.2-2-3.1-3.2c-0.4-0.6-0.8-1.1-1.6-1c-0.9,0.1-1,1-1.1,1.6
			c-0.2,1.6,0.2,3.1,1,4.5c0.1,0.3,0.4,0.4,0.7,0.5c0.5,0.2,1.1,0.4,1.6,0.7c1.7,1.1,3,1.1,4.3-0.7c0.6-0.9,2.1-0.5,3.2-0.6
			c-1.2,1.6-2.1,3.5-3.5,5c-0.8,0.9-1.9,0.8-2.9,0.6c-1.7-0.3-3.3-0.8-4.9-1.3c-1.4-0.5-2.6-1.3-3.3-2.6c-0.6-1-1.1-2-1.9-2.8
			c-2.9-3.7-3.5-8-3.3-12.5c0.1-3.5,0.5-7,1-10.4c0.2-1.3,0-2.7-0.1-4c-0.3-5.8-0.2-11.6,1.2-17.3c0.7-2.8,1.7-5.5,3.5-7.9
			c0.2-0.3,0.4-0.6,0.7-0.9c0-0.1,0.1-0.1,0.3-0.2c0.2,0.6,0.4,1.1,0.6,1.6c0.2-2.1,0.4-4.2,0.6-6.3c0.1-1.4,0.6-2.2,2-2.5
			c1-0.3,2-0.6,3.1-0.8c0.7-0.1,0.9-0.1,0.8,0.7c-0.6,3.8,0.3,7.6,2.6,10.9c-0.2-1.5-0.4-2.7-0.6-3.9c-0.3-2.4,0-4.8,0.5-7.2
			c0.1-0.6,0.3-0.6,0.9-0.5c2.2,0.5,4.1,1.6,5.7,3.2c0.2,0.2,0.4,0.4,0.3,0.8c-0.5,2.3-1.1,4.6-2.8,6.5
			C67.7,113.9,67,114.4,66.2,114.8z M56.7,117.8c-5.7,6.1-5.9,13.6-5.4,21.3C52.7,131.8,54.1,124.7,56.7,117.8z M56.8,135.8
			c3.7-5.1,6.1-10.8,6.3-17.2C61.5,124.5,59.5,130.2,56.8,135.8z M66.4,117.1c1.2,5.8-0.7,10.7-3,15.5c0.2,0.1,0.3,0,0.4-0.1
			c1.9-3,3.6-6.1,4.1-9.7C68.1,120.8,67.9,118.9,66.4,117.1z M51.1,162.2c1.3,1.9,2.6,3.6,3.8,5.4C54.8,165.3,52.9,162.6,51.1,162.2
			z M63.4,162.3c0.6-0.3,1.1-0.4,1.4-0.8C64,161.1,63.6,161.3,63.4,162.3z M56.8,136.1c0-0.1,0-0.1-0.1-0.2c-0.1,0-0.2,0.1-0.3,0.1
			c0,0,0,0.1,0.1,0.1C56.6,136.1,56.7,136.1,56.8,136.1z"/>
		<path class="st6" d="M129.6,113.9c0.1-2,0.2-3.7,0.3-5.5c0-0.6,0.4-0.9,0.9-1.1c12.5-7.9,24.9-15.8,37.4-23.7c4.8-3,9.5-6,14.3-9
			c1.9-1.2,3.1-0.8,3.6,1.4c0.9,3.6,0.1,7-1.5,10.3c-1.1,2.3-2.8,4.1-5.3,5.2c-16.2,7.3-32.4,14.7-48.6,22.1
			C130.4,113.6,130.1,113.7,129.6,113.9z M180,82.5c0-1.1,0-2-0.8-2.3c-0.8-0.3-1.5,0.2-2,0.7c-1.4,1.5-2.2,3.2-2.2,5.3
			c0,0.7,0.1,1.4,0.8,1.8c0.7,0.3,1.3,0,1.8-0.5C179.1,86.1,179.9,84.3,180,82.5z"/>
		<path class="st6" d="M105.8,103c0.1-2,0.2-3.8,0.3-5.7c0-0.5,0.3-0.7,0.6-1c16-12.9,32-25.8,48-38.6c1.9-1.5,3.2-1.1,3.8,1.2
			c1.3,5.2-1.6,12.6-5.9,15.2c-15.3,9.3-30.5,18.8-45.8,28.2C106.5,102.6,106.2,102.8,105.8,103z M152.4,65.5c0-0.9,0-1.8-0.8-2.2
			c-0.8-0.4-1.5,0.1-2,0.7c-1.4,1.4-2.2,3.2-2.2,5.2c0,0.7,0,1.5,0.8,1.9c0.8,0.4,1.4-0.1,2-0.6C151.5,69.1,152.2,67.3,152.4,65.5z"
			/>
		<path class="st6" d="M178.3,104.6c0,2.2-1.8,4.2-4.3,5.1c-10.1,3.6-20.2,7.2-30.2,10.8c-10.5,3.8-21.1,7.5-31.6,11.3
			c-0.4,0.1-0.9,0.5-1.3,0c-0.4-0.4-0.3-1-0.1-1.4c0.4-1,1-1.7,2-2.2c19.5-8.9,39-17.8,58.6-26.8c1.3-0.6,2.7-0.8,4.2-0.5
			C177.2,101.4,178.3,102.8,178.3,104.6z"/>
		<path class="st6" d="M91.4,50.3c0.1,0,0.3,0.1,0.4,0.1c6.5-0.3,12.9,0.4,19.3,1.4c1.2,0.2,2.3,0.5,3.3,1.4c-1.5,1.3-3.2,1.5-5,1.7
			c-5.4,0.3-10.8-0.4-16.1-1.2c-1.2-0.2-2.2-0.1-3.4,0.3c-3.2,1.3-6.4,2.9-9.2,5.1c-0.1-1.8,0.4-3.2,2-4c1.3-0.7,2.6-1.6,3.8-2.6
			c-1.9,0.7-3.6,1.7-5.4,3c0-1.2-0.2-2.2,0.6-3.1c1.1-1.1,2.2-2.3,3.6-3.1c1.9-1,1.9-1,2.9,0.8c0.2,0.3,0.2,0.8,0.9,0.7
			c1.4-0.3,1.4-0.2,0.9-1.6c-0.1-0.3-0.2-0.5-0.3-0.8c-0.5-1.2-1.6-1.6-2.7-1.1c-2.2,1.1-4.1,2.7-5.4,4.8c-0.1,0-0.3,0.2-0.3,0
			c1.3-8.3,8.5-15.2,15.9-15.7c4.5-0.3,7.7,1.8,9.9,5.6c0.4,0.7,0.7,1.4,1,2.2c0.1,0.4,0.4,0.8,0.8,1c2,1.1,2,3.2,2.5,5.1
			c0.2,0.6-0.4,0.3-0.6,0.3c-1.8-0.3-3.6-0.6-5.4-0.9c-1.5-0.2-3-0.4-4.4-0.5c-0.7,0-1-0.3-1.1-0.9c-0.1-0.5-0.4-1-0.6-1.5
			c-0.2-0.8-0.6-1.4-1.5-1.6c-0.4-0.1-0.6-0.4-0.9-0.8c-0.6-1-1.2-1.9-2.2-2.6c-1.1-0.8-2.2-1.3-3.7-1.1c3.8,1.7,6.1,4.4,6.8,8.5
			C95.7,49.3,93.5,49.5,91.4,50.3c0,0,0.1,0.1,0.1,0.2l0,0C91.5,50.4,91.5,50.4,91.4,50.3z"/>
		<path class="st6" d="M82.6,62.7c0.1-1,0.2-1.9,0.6-2.7c0.6-1.1,1.2-1.1,2.1-0.3c1.1,1.1,1.5,1,2.2-0.3c0.6-1.2,1.4-2,2.9-2.4
			c2.4-0.7,4.6-0.7,7,0c2.7,0.9,5.6,1.4,8.4,2.1c0.9,0.2,1.3,1.8,0.7,2.4c-0.1,0.1-0.2,0.3-0.3,0.1c-0.9-0.9-1.9-0.1-2.8-0.1
			c-0.8,0-1.2,0.6-1.5,1.2c-0.1,0.2-0.1,0.3,0,0.5c0.6,0.8,1.9,1.1,2.8,0.7c1.1-0.5,1.2-0.5,1.2,0.8c0,1.8-0.6,3.4-1.4,5
			c-1.1,2-2.1,4-2.6,6.2c-0.2,1-0.8,1.9-1.3,2.7c-1.4,2-3.2,2.6-5.4,1.5c-3-1.4-5.3-3.6-6.9-6.5c-1.1-2-1.9-4.2-2.7-6.3
			c-0.1-0.4-0.3-0.7-0.9-1C82.8,65.7,82.8,64,82.6,62.7z M99.8,67.1c0.1-2-0.5-4,0.2-5.9c-4.5-1-6.2-0.7-7.2,1.5
			c1.1,0,2.2-0.3,3.3,0.3c0.8,0.5,1.6,0.8,2.4,0.1C99.1,64.4,97.5,66.3,99.8,67.1z M87.9,65.1c0.2,1.4,0.7,2.8,1.8,3.6
			c1.3,0.9,1.5,2.1,1.6,3.4c0,0.5,0.1,1.1,0.1,1.6c0.5-1.4,0.8-2.9,1.1-4.4c0-0.3-0.1-0.4-0.3-0.4C90.3,68.2,88.9,66.8,87.9,65.1z
			 M101.9,70.3c-0.9,0.2-1.6,0.2-2.2-0.2c-0.2-0.1-0.4-0.1-0.7,0c-0.5,0.1-1.1,0.4-1.7,0.1c-0.7-0.3-0.5-1-0.7-1.5
			c-0.8,1.3-0.6,1.9,0.7,2.3c0.5,0.1,0.9,0.3,1.3,0.7C100,72.8,101.6,72.2,101.9,70.3z M85.3,64c-0.2-0.7-0.3-1.3-0.1-2.1
			c0.2-0.6-0.8-2.2-1.1-2.1c-0.7,0.4-0.7,1.1-0.8,1.8c0.4,0,0.6-0.6,1-0.3c0.2,0.1,0.3,0.6,0.3,0.7c-0.9,0.5,0.1,0.7,0.2,1
			c-0.2,0.1-0.5,0.3-0.7,0.4C84.3,63.8,84.7,64,85.3,64z M96.1,75.5c1.4,2.2,2.7,2.2,3.9,0.1C98.7,76.2,97.5,76.1,96.1,75.5z
			 M96.1,73.9c1.5,0.3,3.1,0.3,4.6,0.1C99.2,72.9,97.6,73.7,96.1,73.9z"/>
		<path class="st6" d="M95.8,127.4c-0.6,3.3-1.2,6.5-1.7,9.8c-0.2,1.6-1,2.3-2.3,2.9c-10.1,4.3-20.1,8.7-30.2,13.1
			c-0.6,0.3-1.1,0.3-1.6-0.2c-0.4-0.4-0.9-0.6-1.3-0.9c-1.1-0.7-1.1-1.9,0-2.6c12.3-7.3,24.6-14.6,36.8-22
			C95.5,127.4,95.6,127.4,95.8,127.4z"/>
		<path class="st6" d="M119.9,147.5c-6.5,3.4-13.2,6.2-20.3,7.9c-0.6,0.1-1.1,0.4-1.7,0.8c-3.3,2.2-6.8,4.1-10.7,5.2
			c-0.8,0.2-1.6,0.2-2.3,0c-2.4-0.9-4.4-2.5-6.6-3.8c-0.4-0.2-0.1-0.3,0-0.4c0.1-0.3,0.3-0.6,0-1.1c-0.7,1-1.4,1.1-2.3,0.3
			c-0.4-0.3-0.6-0.7-0.5-1.2s0.5-0.8,1-0.9c0.9-0.2,1.8-0.1,2.7,0.1c2.1,0.5,4,1.4,5.8,2.4c0.6,0.3,1.1,0.3,1.6,0
			c1.2-0.6,2.4-1.1,3.4-2.1c0.4-0.4,1-0.8,0.8-1.5c-0.2-0.7-0.9-0.7-1.5-0.7c-1.2,0-2.4,0.1-3.6,0.2c-1.2,0-2.3,0.1-3.4-0.5
			c-0.6-0.3-1-0.7-1.2-1.3c-0.3-0.8,0-1.5,0.9-1.6c0.7,0,1.4,0,2.2,0.1c2.9,0.2,5.7,0.2,8.4-0.7c2.2-0.8,4.5-0.8,6.7,0
			c0.2,0,0.3,0.1,0.5,0.2c5.7,1.7,5.7,1.7,13.7,0C115.7,148.4,117.8,148,119.9,147.5z M84.2,151.3c0.5,0,0.7-0.4,0.6-0.8
			c0-0.4-0.4-0.7-0.9-0.8C84,150.3,84.1,150.8,84.2,151.3z"/>
		<path class="st6" d="M62.1,140.6c1.7-3.2,3.2-6.1,4.8-9c0.1-0.3,0.4-0.5,0.7-0.7c7.4-6.2,14.8-12.4,22.2-18.6
			c0.6-0.5,0.8-0.5,1.2,0.1c1.1,1.6,2.3,3.1,3.5,4.6c0.6,0.7,0.4,1-0.3,1.4c-9.6,6.5-19.1,13.1-28.6,19.7
			C64.6,138.9,63.5,139.7,62.1,140.6z"/>
		<path class="st6" d="M69.1,88.9c-0.7,0.3-1.4,0.8-2.1,1.1c-0.4,0.2-1,0.5-1.4,0c-0.5-0.4-0.3-1-0.2-1.5c0.3-1.4,1-2.7,1.6-3.9
			c0.2-0.4,0.4-0.8,0.7-1.4c-1.1,0.6-2,1.1-2.9,1.5c-0.5,0.2-1.1,0.5-1.7,0c-0.6-0.5-0.5-1.1-0.3-1.7c0.6-2.2,1-4.4,2.6-6.1
			c1.7-1.8,3.8-2.4,6.2-2.2c0.9,0,1.2,0.7,1.6,1.3c0.9,1.6,1.1,3.3,1.3,5c0.5,5.4,0.1,10.7-0.3,16.1c0,0.5-0.1,1-0.1,1.6
			c-0.5-0.4-0.9-0.7-1.3-1c-1.9-1.4-3.8-2.8-6.3-2.8c-0.7,0-0.5-0.4-0.4-0.7c0.3-1.1,1-2.1,1.7-3.1c0.5-0.7,1.1-1.3,1.6-1.9
			C69.2,89,69.2,89,69.1,88.9z"/>
		<path class="st6" d="M91.4,95.1c0,1.2-0.6,2.2-0.9,3.2c-0.9,2.8-1.5,5.5-1.4,8.5c0,0.4-0.1,0.7-0.4,1c-5.9,4.8-11.8,9.7-17.6,14.5
			c0,0,0,0-0.2,0c0.5-1.9,0.8-3.8,0.7-5.7c0-0.3,0.2-0.5,0.3-0.8c0.3-0.5,0.7-1,0.8-1.5c0.3-1.8,1.6-2.9,2.9-4.1
			c5-4.8,10-9.6,15-14.4C90.7,95.4,90.8,95.1,91.4,95.1z"/>
		<path class="st6" d="M54.1,104.2c0.4-2.9,1.1-5.6,3.2-7.7c2-2,4.4-2.2,7-1.6c3.1,0.7,5.9,2.1,8.5,3.9c1.7,1.2,2.3,3.1,2,5.1
			c0,0.5-0.2,0.9-0.5,1.3c-0.5,0.7-1.1,1-1.9,0.3c-2.3-1.7-4.8-3.1-7.5-3.8c-3.7-1-7-0.4-9.9,2.1C54.6,104,54.5,104.2,54.1,104.2z"
			/>
		<path class="st6" d="M83.7,67.8c0.7,0.2,1,0.8,1.1,1.5c0.7,3.3,1.5,6.5,3.1,9.5c0.6,1.1,1.2,2.3,2.1,3.2c0.6,0.6,0.5,1.1,0.1,1.7
			c-1.2,2.1-2.7,2.3-4.5,0.8c-2.5-2.1-3.1-4.9-3.3-7.9C81.9,73.5,82.7,70.7,83.7,67.8z"/>
		<path class="st6" d="M88.2,91.1c-2.3-0.5-4.4-1.6-6.5-2.9c-0.8-0.5-1.7-1-2.2-1.8c-0.5-0.8,0.5-1.7,0.6-2.7
			c-1.1,0.2-2.2,0.4-3.2,0.6c-0.4,0.1-0.8,0.1-0.7-0.5c0-4.1,1.6-7.6,3.9-10.9c-0.5,3.6,0.3,6.9,1.9,10C83.6,86,85.9,88.6,88.2,91.1
			z"/>
		<path class="st6" d="M92.6,88.2c1.7-2.2,3.3-4.3,5.1-6.4c0.6-0.7,1.5-1.1,2.3-1.6c1.4-1.1,2.8-2.2,2.9-4c0.1-1.6,1.1-2.7,2-4.1
			c0.2,2.2,0.3,4,0.5,5.9c0,0.4-0.1,0.7-0.5,0.9c-1.2,0.8-2.3,1.7-3.6,2.4c-1,0.6-1.4,1.3-1.2,2.4c0.1,0.9-0.1,1.2-1.1,1.4
			c-2.3,0.5-4.3,2-6.2,3.3C92.7,88.3,92.7,88.3,92.6,88.2z"/>
		<path class="st0" d="M48.8,179.2c-1.7-1.9-2.7-4-3.2-6.3c-0.1-0.5,0.1-0.6,0.5-0.8c1.1-0.3,2.1-0.8,2.6-2c0.3-0.8,1.2-1.1,1.9-1.6
			c0.3-0.2,0.5-0.1,0.8,0c0.3,0.1,0.2,0.3,0.1,0.5C50.7,172.4,49.8,175.7,48.8,179.2z"/>
		<path class="st7" d="M81.6,52.4c1.3-2.2,3.2-3.7,5.4-4.8c1.1-0.6,2.2-0.1,2.7,1.1c0.1,0.3,0.2,0.5,0.3,0.8
			c0.6,1.3,0.5,1.3-0.9,1.6c-0.7,0.1-0.7-0.4-0.9-0.7c-1.1-1.8-1.1-1.7-2.9-0.8c-1.4,0.8-2.5,1.9-3.6,3.1
			C81.7,52.5,81.6,52.5,81.6,52.4z"/>
		<path class="st6" d="M84.3,161.8c-1.6,0.4-3.1,0.3-4.6,0.3c-0.3,0-0.5-0.1-0.7-0.4c-0.7-1.3-1.3-2.5-2.2-4.1
			c1.4,0.8,2.6,1.4,3.8,2.1C81.9,160.4,83.1,161,84.3,161.8z"/>
		<path class="st6" d="M48.2,136.5c0,1.4,0,2.7,0,4c0,0.7-0.7,0.9-1.1,1.2C46.2,139.7,46.6,137.6,48.2,136.5z"/>
		<path class="st6" d="M77.2,159.3c0.4,0.8,0.8,1.6,1.2,2.4c-1.3,0.6-1.6,0.4-1.5-1.1c0-0.4,0-0.9,0.1-1.3
			C77,159.3,77.1,159.3,77.2,159.3z"/>
		<path class="st8" d="M139.6,113.8c1.3-0.7,2.6-1.2,4-1.5c-1.3,0.6-2.6,1.2-3.9,1.9C139.7,114.1,139.7,114,139.6,113.8z"/>
		<path class="st6" d="M92.8,88.4c-0.1,0.1-0.2,0.2-0.3,0c0,0,0.1-0.1,0.1-0.2C92.7,88.3,92.7,88.3,92.8,88.4z"/>
		<path class="st1" d="M56.7,117.8c-2.6,6.9-4.1,14-5.4,21.3C50.8,131.4,51,123.9,56.7,117.8z"/>
		<path class="st7" d="M56.8,135.8c2.6-5.5,4.7-11.3,6.3-17.2C62.9,125,60.5,130.7,56.8,135.8z"/>
		<path class="st7" d="M66.4,117.1c1.5,1.8,1.7,3.7,1.5,5.7c-0.5,3.6-2.2,6.7-4.1,9.7c-0.1,0.1-0.2,0.2-0.4,0.1
			C65.7,127.8,67.7,122.9,66.4,117.1z"/>
		<path class="st7" d="M51.1,162.2c1.8,0.3,3.6,3.1,3.8,5.4C53.7,165.9,52.5,164.1,51.1,162.2z"/>
		<path class="st7" d="M63.4,162.3c0.1-1.1,0.6-1.2,1.4-0.8C64.5,162,64,162,63.4,162.3z"/>
		<path class="st7" d="M56.8,136.1c-0.1,0-0.2,0.1-0.3,0.1c0,0,0-0.1-0.1-0.1c0.1,0,0.2-0.1,0.3-0.1C56.7,136,56.7,136,56.8,136.1z"
			/>
		<path class="st1" d="M180,82.5c-0.1,1.7-0.9,3.5-2.5,4.9c-0.5,0.5-1.1,0.8-1.8,0.5c-0.7-0.3-0.8-1.1-0.8-1.8
			c0-2.1,0.8-3.8,2.2-5.3c0.5-0.6,1.2-1.1,2-0.7C180.1,80.6,180,81.4,180,82.5z M178.3,85.4c0.6-0.3,0.7-1,1-1.6
			c0.1-0.2-1.9-1.4-2.4-1.3c-0.8,0.1-0.8,1-1,1.6C175.8,84.3,177.6,85.3,178.3,85.4z"/>
		<path class="st1" d="M152.4,65.5c-0.2,1.8-0.9,3.6-2.4,5c-0.5,0.5-1.1,1-2,0.6c-0.8-0.4-0.8-1.1-0.8-1.9c0-2,0.9-3.7,2.2-5.2
			c0.5-0.5,1.2-1.1,2-0.7C152.4,63.7,152.4,64.6,152.4,65.5z M149.2,65.5c-0.3,0-1,1-1,1.6c0,0.3,1.7,1.4,2.2,1.3
			c0.9-0.1,0.9-1,1.1-1.6C151.7,66.6,149.7,65.5,149.2,65.5z"/>
		<path class="st1" d="M91.4,50.3c0,0,0.1,0.1,0.1,0.1l0,0C91.5,50.5,91.5,50.4,91.4,50.3C91.5,50.3,91.4,50.3,91.4,50.3z"/>
		<path class="st1" d="M99.8,67.1c-2.2-0.8-0.7-2.7-1.3-4c-0.8,0.7-1.7,0.4-2.4-0.1c-1.1-0.7-2.2-0.3-3.3-0.3
			c1.1-2.2,2.7-2.5,7.2-1.5C99.3,63.1,99.9,65.1,99.8,67.1z"/>
		<path class="st7" d="M87.9,65.1c1.1,1.7,2.3,3.1,4.3,3.8c0.2,0.1,0.4,0.1,0.3,0.4c-0.3,1.5-0.6,3-1.1,4.4c0-0.5-0.1-1.1-0.1-1.6
			c0-1.3-0.3-2.5-1.6-3.4C88.6,68,88.2,66.5,87.9,65.1z"/>
		<path class="st7" d="M101.9,70.3c-0.3,1.9-1.9,2.5-3.2,1.3c-0.4-0.4-0.9-0.5-1.3-0.7c-1.3-0.4-1.5-1-0.7-2.3
			c0.2,0.6,0,1.3,0.7,1.5c0.6,0.2,1.1,0,1.7-0.1c0.3,0,0.5-0.1,0.7,0C100.4,70.5,101.1,70.5,101.9,70.3z"/>
		<path class="st7" d="M85.3,64c-0.5-0.1-0.9-0.3-1.3-0.6c0.2-0.1,0.5-0.3,0.7-0.4c-0.1-0.3-1.1-0.5-0.2-1c0,0-0.1-0.5-0.3-0.7
			c-0.4-0.2-0.5,0.3-1,0.3c0-0.7,0.1-1.4,0.8-1.8c0.3-0.2,1.3,1.4,1.1,2.1C85,62.7,85.1,63.3,85.3,64z"/>
		<path class="st7" d="M96.1,75.5c1.4,0.7,2.6,0.7,3.9,0.1C98.8,77.6,97.5,77.6,96.1,75.5z"/>
		<path class="st7" d="M96.1,73.9c1.5-0.3,3.1-1,4.6,0.1C99.1,74.3,97.6,74.2,96.1,73.9z"/>
		<path class="st7" d="M84.2,151.3c-0.1-0.5-0.2-1-0.3-1.5c0.5,0,0.9,0.3,0.9,0.8C84.9,150.9,84.7,151.2,84.2,151.3z"/>
		<path class="st6" d="M178.3,85.4c-0.7,0-2.6-1.1-2.4-1.3c0.2-0.6,0.2-1.4,1-1.6c0.5-0.1,2.5,1.1,2.4,1.3
			C179,84.4,178.9,85.1,178.3,85.4z"/>
		<path class="st6" d="M149.2,65.5c0.4,0,2.5,1.1,2.4,1.3c-0.2,0.6-0.2,1.4-1.1,1.6c-0.6,0.1-2.3-1-2.2-1.3
			C148.3,66.5,148.9,65.5,149.2,65.5z"/>
	</g>
</g>
</svg>
