<svg id="Laag_1" data-name="Laag 1" xmlns="http://www.w3.org/2000/svg" viewBox="0 0 112.99 113.24"><defs><style>.cls-1{fill:#fff;}</style></defs><title>unidi-logo_dark</title><path class="cls-1" d="M116.34,85.75h-2.61Q110,98.89,106.19,112c-.06.22-.14.43-.21.65l-.25.08L92.36,90.22A20.86,20.86,0,0,0,92.18,60L105.74,37.2l.25,0,.66,2.31q3.51,12.24,7,24.48a4.48,4.48,0,0,1,.11.5h2.37c1.66-2.76,3.28-5.47,4.93-8.14a2.38,2.38,0,0,0,.3-2.08q-4.84-17.44-9.63-34.93c-.1-.33-.21-.65-.33-1-.38.07-.68.1-1,.18q-18,4.71-36.08,9.4a2.36,2.36,0,0,0-1.57,1.23c-1.5,2.64-3.07,5.25-4.56,7.9a2.1,2.1,0,0,1-.2.27q.69,1,1.32,2l.36-.11Q83,36,96.35,32.62l1.15-.25a7.63,7.63,0,0,1-.33.79q-6.54,11-13.09,22.09a20.68,20.68,0,0,0-6.28-1A21,21,0,0,0,57.45,70.39c-9.61,0-19.23,0-28.84,0-.18,0-.36,0-.72-.05.34-.38.55-.64.78-.87Q38.35,59.83,48,50.22l.27-.24c-.43-.7-.88-1.39-1.34-2.06h-.19c-3.12,0-6.24,0-9.36-.08a2.38,2.38,0,0,0-1.87.72Q22.34,61.46,9.12,74.31a8.5,8.5,0,0,0-.61.7c.17.19.29.35.43.48q13.38,13,26.75,26.06a1.85,1.85,0,0,0,1.45.56c3.2,0,6.4,0,9.6-.08h.16l.24-.43c.24-.43.45-.87.7-1.3a3.91,3.91,0,0,1,.3-.45l0,0L28.5,80.35c-.18-.18-.33-.39-.64-.77H57.33a20.9,20.9,0,0,0,27,15.53q6.38,10.8,12.79,21.6c.13.23.25.47.46.86-.5-.09-.87-.13-1.22-.22Q83,114,69.59,110.65a4,4,0,0,1-.45-.15l-.18.28c-.28.46-.5,1-.77,1.45-.06.11-.12.22-.19.33a2.44,2.44,0,0,1,.22.31c1.46,2.58,3,5.11,4.44,7.7a2.93,2.93,0,0,0,2,1.52c10.71,2.76,21.42,5.57,32.12,8.36l4.59,1.17c.13-.41.24-.73.34-1.06q4.78-17.36,9.58-34.7a2.81,2.81,0,0,0-.38-2.5C119.4,90.86,117.89,88.33,116.34,85.75ZM64.87,75.22A12.93,12.93,0,1,1,77.8,88.15,12.95,12.95,0,0,1,64.87,75.22Z" transform="translate(-8.51 -18.38)"/></svg>