<svg id="Android" xmlns="http://www.w3.org/2000/svg" viewBox="0 0 500 500"><defs><style>.cls-1,.cls-2{fill:#fff;}.cls-1,.cls-3{fill-rule:evenodd;}.cls-3{fill:#abc051;}</style></defs><title>Tekengebied 1</title><path class="cls-1" d="M118.62,424.46V374.9H90.81C76,374.9,64,386,64,399.68s12,24.78,26.79,24.78h8.52V413.69H90.85c-8.61,0-15.61-6.06-15.61-14s6.84-14,15.43-14h17.26v38.79Z"/><path class="cls-1" d="M154.05,373c-14.21,0-25.72,9.77-25.72,24.59v26.83h10.46V397c0-9.54,8.15-15,15.26-15s15.12,5.51,15.12,15v27.43h10.61V397.63C179.77,382.81,168.26,373,154.05,373Z"/><path class="cls-1" d="M237.71,399.37c0-14.28-9.43-24.47-23.64-24.47H190.49v10.77h24.15c9.15,0,12.94,6.41,12.94,13.55s-3.93,14.47-13.08,14.47H190.35v10.67h23.58C228.13,424.35,237.71,413.65,237.71,399.37Z"/><path class="cls-1" d="M432.78,399.37c0-14.28-9.44-24.47-23.64-24.47H385.56v10.77h24.15c9.15,0,12.93,6.41,12.93,13.55s-3.92,14.47-13.08,14.47H385.42v10.67H409C423.2,424.35,432.78,413.65,432.78,399.37Z"/><path class="cls-1" d="M286.63,407.72c4.55-2.48,6.82-7,6.82-14.85,0-13.73-7.3-18-21.51-18H248.37v10.77h24.15c9.15,0,10.79,2.92,10.79,7.06s-1.33,7.68-10.48,7.68H248.68l0,9.9h24.25a9.36,9.36,0,0,1,8.33,9.31c0,1.56.27,3-.39,4.31,0,.17.65.36.65.54h9.74S293,413.91,286.63,407.72Z"/><path class="cls-1" d="M303.22,399c0,14.1,10.95,25.52,24.46,25.52s24.46-11.42,24.46-25.52-10.95-25.51-24.46-25.51S303.22,384.88,303.22,399Zm9.82,0c0-8.43,6.55-15.28,14.64-15.28s14.65,6.85,14.65,15.28-6.56,15.28-14.65,15.28S313,407.41,313,399Z"/><rect class="cls-2" x="364.09" y="374.9" width="10.72" height="49.56"/><path class="cls-2" d="M282.86,77.18v0l0,0Zm59.23,74.41a24.39,24.39,0,0,0-14.57,4.79l-.15-1.76v-2.56h-.22l-.12-1.38c-1.75-20.22-13.37-38.6-31.9-50.48l6.81-9.89a11.58,11.58,0,1,0-19.08-13.13h0l.26.18-.19.28-.09-.44c-.18.21-.44.59-.91,1.27l-2.28,3.31-6,8.66a88.78,88.78,0,0,0-49.64,0l-9.15-13.29a11.59,11.59,0,1,0-19.08,13.14L197,92l5.65,8.2c-18.52,11.88-30.14,30.26-31.89,50.48l-.49,5.7a24.4,24.4,0,0,0-14.58-4.79,25,25,0,0,0-24.87,25.11V238a25,25,0,0,0,24.87,25.11A24.74,24.74,0,0,0,171,257.78v15.76A21.49,21.49,0,0,0,192.5,295h4.35v24.71a24.87,24.87,0,1,0,49.74,0V295h5.22v24.71a24.87,24.87,0,1,0,49.74,0V295h4.35a21.49,21.49,0,0,0,21.47-21.46v-15.3a24.39,24.39,0,0,0,14.72,4.9A25,25,0,0,0,367,238V176.7A25,25,0,0,0,342.09,151.59Z"/><path class="cls-3" d="M342.09,161a15.58,15.58,0,0,0-15.45,15.7V238a15.46,15.46,0,1,0,30.91,0V176.7A15.58,15.58,0,0,0,342.09,161Zm-186.4,0a15.58,15.58,0,0,0-15.45,15.7V238a15.46,15.46,0,1,0,30.91,0V176.7A15.58,15.58,0,0,0,155.69,161Z"/><path class="cls-3" d="M180.45,161.48V273.54a12.05,12.05,0,0,0,12.05,12h13.76v34.12a15.46,15.46,0,1,0,30.91,0V285.59h24.06v34.12a15.45,15.45,0,1,0,30.9,0V285.59H305.9a12.05,12.05,0,0,0,12.05-12V161.48Z"/><path class="cls-3" d="M281.49,103.41,294.19,85a2.18,2.18,0,1,0-3.57-2.46l-13.19,19.16a78.91,78.91,0,0,0-57.07,0L207.17,82.51A2.18,2.18,0,1,0,203.6,85l12.7,18.44c-20.2,9.4-34.36,27.25-36.16,48.08H317.65C315.84,130.66,301.68,112.81,281.49,103.41Zm-61.6,29.06a7.61,7.61,0,1,1,7.6-7.61A7.6,7.6,0,0,1,219.89,132.47Zm59,0a7.61,7.61,0,1,1,7.61-7.61A7.61,7.61,0,0,1,278.85,132.47Z"/></svg>