<svg id="iOS" xmlns="http://www.w3.org/2000/svg" viewBox="0 0 500 500"><defs><style>.cls-1,.cls-2{fill:#b3b3b3;}.cls-1{fill-rule:evenodd;}</style></defs><title>Tekengebied 1</title><path class="cls-1" d="M281.34,102.7c7.35-9.19,12.71-21.82,11.33-34.56-11,.4-24.08,7.25-31.87,16.49-7,8-13.12,21.1-11.37,33.45,11.94.79,24.22-6.14,31.91-15.38Z"/><path class="cls-1" d="M170.34,230.14h0a.08.08,0,0,0,0-.06v.06Z"/><path class="cls-1" d="M313.16,203.1H313v-.33c-3.42-6.89-5-17.67-3.67-26.4V176h0c1.37-11.43,8.74-23.13,14.62-27.37l.23-.18v0h0a64.36,64.36,0,0,1,7.54-6.24,49,49,0,0,0-40-21.26c-15.61-1.31-31.8,9.88-40.54,9.62-8.45.26-21.21-9.84-34.68-9.2l-.13,0c-.3,0-2.73.13-2.73.13-17.85.44-33.68,11-42.67,26.91v.06H171v-.06c-3.56,5.75-7.82,19.15-8.46,27.63h0v.45c-.86,5.38,0,19.72.94,26.62h0a1.51,1.51,0,0,1,.06.35l0,0c.75,6.87,4.25,20.16,6.86,26.65v.06h0c2.51,7.18,9.53,20.64,14.06,27.52v0h.05c9.15,13.14,19.92,27.9,34.12,27.27,13.73-.52,18.78-9.11,35.3-9,16.52-.13,21.09,8.57,35.57,8.63,14.75-.63,23.9-13.76,33-26.92,4.49-6.78,11.52-19.82,14-27.57h0c.28-.82.69-2.08,1-3-9.7-2.75-20.59-15.54-24.4-24.05Z"/><path class="cls-2" d="M187.65,347.25c.12,3.8-2.66,6.83-7.09,6.83a6.61,6.61,0,0,1-6.71-6.83,6.79,6.79,0,0,1,7-7A6.62,6.62,0,0,1,187.65,347.25Zm-12.41,78.5V364.47h11.14v61.28Z"/><path class="cls-2" d="M278.18,382.19c0,29.38-17.86,44.95-39.63,44.95-22.54,0-38.37-17.47-38.37-43.3,0-27.1,16.84-44.82,39.63-44.82C263.11,339,278.18,356.87,278.18,382.19ZM212,383.59c0,18.23,9.87,34.56,27.22,34.56s27.35-16.08,27.35-35.45c0-17-8.86-34.69-27.22-34.69S212,364.85,212,383.59Z"/><path class="cls-2" d="M291,412.33a39,39,0,0,0,19.75,5.57c11.27,0,17.86-5.95,17.86-14.56,0-8-4.56-12.54-16.08-17C298.56,381.43,290,374.22,290,362.19c0-13.3,11-23.17,27.6-23.17,8.74,0,15.07,2,18.87,4.18l-3,9a34,34,0,0,0-16.21-4.06c-11.65,0-16.08,7-16.08,12.79,0,8,5.19,11.9,17,16.46,14.43,5.57,21.78,12.54,21.78,25.07,0,13.17-9.75,24.57-29.88,24.57-8.23,0-17.22-2.41-21.78-5.45Z"/></svg>