<svg id="Linux" xmlns="http://www.w3.org/2000/svg" viewBox="0 0 500 500"><defs><style>.cls-1,.cls-5{fill:#1d1d1b;}.cls-1,.cls-2,.cls-3,.cls-4{stroke:#999;stroke-miterlimit:10;stroke-width:4px;}.cls-1,.cls-2,.cls-3,.cls-4,.cls-5,.cls-6,.cls-7,.cls-8{fill-rule:evenodd;}.cls-2,.cls-6{fill:#fff;}.cls-3,.cls-7{fill:#f7c54e;}.cls-4,.cls-8{fill:#cfcfcf;}.cls-9{fill:#999;}</style></defs><title>Tekengebied 1</title><path class="cls-1" d="M263.16,64.82a36.05,36.05,0,0,1,4.73.54,42,42,0,0,1,7.73,2.36c1.56.65,2.94,1.73,4.52,2.26,2.13,1.07,3.58,3,5.59,4.19,1.38,1.44,2.53,2.41,3.86,3.87.69.85,1.29,1.61,1.93,2.47.27,1.09,1.29,1.88,1.62,3a17,17,0,0,1,1.28,4.09,23.37,23.37,0,0,1,.76,4.94c-.24,12.81-.4,25.64,0,38.47.65,3.78.3,7.72,1.4,11.39.55,2.73.95,5.54,2.14,7.73,2,3.68,3.65,7.59,5.92,11.29,1.24,1.34,2.21,2.85,3.43,4.3,2.45,3.5,4.49,7.61,7.1,10.84,1.67,3.35,3.49,6.61,5.36,9.89,1.4,4.21,3.8,8.08,4.84,12.46A110.9,110.9,0,0,1,329,214.17c1.6,8.67,2.73,17.27,3.75,26-.06,4.72-.65,9.46-.42,14.18-.44,1.58-.14,3.13-.55,4.73-.5,2.22-1.78,4.25-2.25,6.45.2,1.23-.44,2.41-.21,3.65,1,2.06,1.08,4.43,1.61,6.66.84.51,1.28,1.51,2.25,2.15,1.66-.3,3.27.48,5,.21,2-.53,4.08-.49,6-.85,2.38-.27,4.71.45,7.09.21,1.55,1,3.35,1.73,4.73,2.69,1.24.73,1.76,2.32,3,3.22-.43,2.11.05,4.32-.53,6.34-2.17,3-4.06,6.27-6.13,9.24-3.5,3.49-6.3,7.64-9.67,11.28-4.11,4.23-7.74,8.81-11.92,13-4.92,2.82-8.54,7.25-13.22,10.42-2.1.93-3.79,2.6-6,3a34.68,34.68,0,0,1-5.8,1.18h-5c-1.57-.54-3.32-.6-4.84-1.18-1-.57-2-.81-3-1.29-1.79-1-3.07-2.61-4.72-3.76-.39-1.13-1.41-1.94-2.15-2.9a33.32,33.32,0,0,1-2.26-5.91,15.93,15.93,0,0,0-.53-2.8c-4.14.34-8.32.43-12.47.87-4.3-.22-8.6-.26-12.89-.22-5.59-.81-11.18-1.07-16.76-2.26-4-.9-7.91-1.76-11.82-3-2.91-1.26-6-2.29-8.81-3.54-.44-.65-1.39-.73-1.83-1.29-1.38,1.14-2.16,2.82-3.54,4.19-1,2.57-2.65,4.82-4,7.21-.55.66-1.36,1.29-1.39,2.14-1.16,1-2,1.93-3.12,3-2.08.8-3.91,2.25-6.13,2.47-.55.7-2-.06-2.57.65-1.91.45-3.81-.49-5.7-.11-2.3-1-4.85-1.72-7-2.8-3.86-2.19-7.71-4.34-11.61-6.34-7.75-5.77-15.42-11.69-23-17.84l-7.09-7.08a47.69,47.69,0,0,1-1.71-5.59,40.74,40.74,0,0,0,1.28-4c.66-.59,1.27-1.47,1.94-2,.84-1.73,3.2-1.8,4.73-2.57a33.18,33.18,0,0,1,5.15-.87c2.09,0,3.61-1.17,5.38-1.5.16-.64.65-1,.85-1.72.41-2.25-.64-4.52-.43-6.76.52-1.28.9-2.54,1.4-3.88a5.28,5.28,0,0,1,2.15-2.35c.63-.23.78-.82,1.61-.76a27.79,27.79,0,0,1,5.16,0c1.61.58,3.23,1.13,4.83,1.82.79.39,2,.16,3,.22,1-.64,1.5-2.14,2.47-2.68a33.32,33.32,0,0,1,4.51-7.2c.52-.23.63-.76,1.19-.86.76-.44.48-1.55.53-1.94-.8-5.21-.15-10.46-.21-15.69.42-4.16.86-8.42,1.61-12.46.73-3.77,1.75-7.52,2.47-11.28,1.56-4.52,3.55-9,5.26-13.43,8.47-17.2,18.07-33.8,27-50.71,1.66-2.36,2.85-5,4.51-7.3v-.44c-.29-2.23.75-4.49.43-6.66V117c-.44-3.86-.08-7.75-.43-11.6-.07-.44-.16-.86-.22-1.29v-11c.32-.09.17-.28.22-.43-.29-1.07.47-1.84.21-2.9a16.28,16.28,0,0,0,1.07-4,30.56,30.56,0,0,1,5-7.41c1.83-1.86,3.85-3.37,5.8-5a51.48,51.48,0,0,1,8.6-5.27c2-.64,3.69-1.75,6-2.14a26.31,26.31,0,0,1,8.38-1.19Z"/><path class="cls-2" d="M275.2,106.51c1.3.82,2.46,1.8,3.86,2.58,1.08,2.41,0,5,.22,7.52-1.17,3.14-2,6.82-5.16,8.59a17.29,17.29,0,0,1-5.58-1.28c1.65-.57,4-1.41,4.73-3.44a9.3,9.3,0,0,0,1.5-4.73,11.07,11.07,0,0,0-1.72-5.69,7.43,7.43,0,0,0-3.87-2.37c-2.48-.46-4.4,1.1-5.59,2.69a12.59,12.59,0,0,0-1.4,3.65c-.49,2.76.54,5.65,1.83,8-1.1-1.16-3.14-1.28-3.76-2.79a16.45,16.45,0,0,1-.11-12.68,22.11,22.11,0,0,1,15.05,0Z"/><path class="cls-2" d="M241.88,106.4c1,.77,2.59.55,3.45,1.61a20.35,20.35,0,0,1,.85,12.25c-1.17-.06-2.17,2-2.79,1.08a10.53,10.53,0,0,0-.53-9.67c-.94-1.22-2.23-2.51-3.76-2.58-1.16.49-2.41.6-3.23,1.72-1.87,2.17-2.12,5.26-1.93,8a8.23,8.23,0,0,0,4.62,6.23,14,14,0,0,1-3.44,1.5,19,19,0,0,1-3.12-6.55c-1-3.33-.44-6.67-.42-10a12.25,12.25,0,0,1,4.51-3.12c1.32-1,4-.44,5.79-.43Z"/><path class="cls-2" d="M276.05,143c1.38,4,2.13,8.14,3.23,12.25,1.28,4.57,3.56,8.75,5.26,13.11,1.87,3.56,3.71,7.14,5.26,10.95.07.16.16.28.22.44,3.74,8.12,7.41,16.22,11.18,24.38a175.26,175.26,0,0,1,6,18.59c.13,3.25,1.49,6.39,1.06,9.68-1.73,6.18-3,12.53-5.15,18.59a8.52,8.52,0,0,1-1.82,3.11c-.44,0-.43.44-.87.43a7.54,7.54,0,0,0-2,2.69,19.77,19.77,0,0,0-1.07,6.55,5.92,5.92,0,0,1-2.36-1.19c-1.59-.41-3.11-.95-4.73-1.29-1.87.23-5.23-1.13-5.8,1.19-.88,1.14-1.6,1.5-2.37,2.69a162.93,162.93,0,0,0-1.93,17.93c.21,4-.46,8-.22,12a35.28,35.28,0,0,1-8.6,4,26.94,26.94,0,0,1-7.52,1.72c-2.57.41-5.21.45-7.73.85-3.87.21-7.74,0-11.6.11-2.8-.31-5.86-.86-8.38-1.07a60.2,60.2,0,0,1-15.69-5.38c.09-1.9,1.11-4,.43-6.12-2.85-8-6.83-15.56-10.1-23.42-2.91-7.42-5.16-15.08-8.06-22.45a104.28,104.28,0,0,1-4.73-11.61c-.74-1,0-2.21.22-3.23,1.06-5.42,3.43-10.29,5.37-15.47,3.22-6.42,6.05-13,9.89-19.12,1.89-3.15,1.81-6.8,2.9-10.21,1.26-4.14,3.37-7.83,5.15-11.7,2.67-4.24,4.61-8.86,7.2-13.12,2.29-4.74,3.92-10.09,6.34-14.39,1.49,1.36,3.11,2.46,4.62,3.86,2.05,1,4.24,2,6.55,1.94,3.16.47,6.3,0,9.46,0,4.26-.71,8.5-1.66,12.25-3.76,2.66-1.35,5.21-3.12,7.84-4.19.11.22.21.43.32.64Z"/><path class="cls-2" d="M197.19,203c.06-.22.16-.44.22-.65-.06.21-.16.43-.22.65Z"/><path class="cls-2" d="M195.91,207.08v0Z"/><path class="cls-3" d="M254.46,117.47c1.27.4,2.72.53,3.76,1.29.32.6,1.08,1,1.29,1.61,4.29,2.36,8.47,4.79,13.32,5.8,2.26-.26,4.47.7,6.45,1.83a21.48,21.48,0,0,0,1.72,1.82c.26,1.56,1.29,2.79.75,4.62-.38.93-.49,2.11-1.19,2.8-1,.85-1.38,2-2.46,2.79-4.4,2-8.18,5-12.79,6.77-4.8,2.1-10.86,2.58-17,2.9a34.93,34.93,0,0,1-5.27-.85,20.75,20.75,0,0,1-3.33-1.51c-2.69-2.3-5.85-4.12-8-7.09-.12-.92-.7-1.12-1-1.93-.84-1.43-.71-4.55-.11-6.13.09-1,.93-1.84,1.08-2.69,3.42-2.37,7.44-3.47,10.85-5.8,1.68-2.25,4.84-2.84,6.45-4.94,1.76-.46,3.47-2,5.37-1.29Z"/><path class="cls-1" d="M275.41,135.73c-2.14,2.25-5.15,2.79-8,3.77a185.5,185.5,0,0,1-20.2,2.36,77.1,77.1,0,0,1-8.6,0,15,15,0,0,1-5.37-2.25c-.81-1-2-1.93-2.15-3.23,2.29,1,3.45,3.75,6.23,4,5.87,1.14,11.75.19,17.63-.21a94.59,94.59,0,0,0,20.41-4.41Z"/><path class="cls-4" d="M227.92,93.19c.06-.15.15-.28.22-.43,0,.15.1.34-.22.43Z"/><path class="cls-4" d="M272.29,99.42c.86.18,1.36,1.08,2.26,1.07,1,1,1.83,2.14,2.79,3.23.36,1.83,1.92,3.37,1.72,5.37-1.4-.78-2.56-1.76-3.86-2.58a22.11,22.11,0,0,0-15.05,0c.15-1.19,1.24-2.13,1.51-3.22a10.72,10.72,0,0,1,4.94-3.76c1.73-1.09,3.82-.42,5.69-.11Z"/><path class="cls-4" d="M239.31,101c.82.23,1.33,1.06,2.15,1.17a23.24,23.24,0,0,1,3,3.66c.57.6.41,1.54.86,2.14-.86-1.06-2.43-.84-3.45-1.61-1.77,0-4.47-.52-5.79.43a12.25,12.25,0,0,0-4.51,3.12v-1.5a21.28,21.28,0,0,1,1.93-5.16c1-.63,1.38-1.72,2.58-2,.68-.55,2.31-.32,3.22-.21Z"/><path class="cls-4" d="M228.14,105.44a2.69,2.69,0,0,1-.22-1.29c.06.43.15.85.22,1.29Z"/><path class="cls-4" d="M228.14,142.62c-.22-.16-.22-.28,0-.44v.44Z"/><path class="cls-4" d="M290,179.79c-.06-.16-.15-.28-.22-.44.32,0,.18.28.22.44Z"/><path class="cls-4" d="M199.13,198.05c.06-.15.15-.28.21-.43-.06.15-.15.28-.21.43Z"/><path class="cls-4" d="M247.69,207.62c.21,1.17.14,2.56.43,3.54-1.47,8.86-2.46,17.67-3.33,26.64-.82,7.38-.6,14.78-1.83,22.14a3.71,3.71,0,0,1-1.4,1.94,1.06,1.06,0,0,1-1.18-.55,5,5,0,0,1-.75-2.46,18.86,18.86,0,0,1-.21-4.73c.28-9.92,1.38-19.81,2.57-29.65.8-5.27,1.14-10.57,2.8-15.7a3.48,3.48,0,0,1,1.29-1.71c.41-.1.49-.3,1-.22.21.26.43.49.64.76Z"/><path class="cls-3" d="M194.3,253.92c1.13.42,1.83,1.47,2.89,2.05,1.06,2.59,2.51,4.82,3.55,7.41,3.14,8.19,5.75,16.51,8.38,24.93.2,1.41.87,2.57,1.07,4.07.26,6.55,2.05,13,2.15,19.56-.33,1.61.28,3.82-.53,5.05a32.18,32.18,0,0,1-3.23,7.2c-1.34,1.23-2.41,2.64-4.3,3.12a11.17,11.17,0,0,1-3.43,1.29,22.93,22.93,0,0,1-8.17.64c-2-.73-4.08-1.3-6-2-4.26-2.62-8.8-4.78-13.12-7.1-7.19-5.68-14.7-11.23-21.7-17l-7.74-7.84a24.91,24.91,0,0,0-1.5-4.41c.48-1.62,1.28-3.15,1.72-4.73.7-.52,1.44-1.37,1.94-1.82,1.7-.63,3.32-1.61,5.15-1.72,1.92-.53,4.45-.23,6.23-1.08,1.34-.73,3.37-.75,3.87-2.36a4.29,4.29,0,0,1,.86-1.72c-.12-1.38-.53-2.8-.53-4.19-.11-.85-.34-2.39.21-3,0-1.44,1.21-2.57,1.4-3.86a9,9,0,0,1,2.14-1.18c1.15.09,2.09-.64,3.23-.22,1.14.18,2.31,0,3.43.64s2.81.6,3.88,1.51a14.78,14.78,0,0,0,2.68.1c1.34-1.08,2-2.46,3.33-3.54a39.58,39.58,0,0,1,2.91-5.05,17.44,17.44,0,0,1,1.93-2.36c1-.38,1.6-1.23,2.58-1.51a8.84,8.84,0,0,1,4.4-1.29c0,.28.27.17.33.43Z"/><path class="cls-3" d="M292.17,262.84a20.41,20.41,0,0,1,2.8.75c.64.34,1,1.07,1.93,1.07.32,2.56-.37,5.17.32,7.74a13,13,0,0,0,1.4,3.34c1.34,1.71,3.48,2.54,5,4,2.06.93,4.08,2.1,6.34,2.47,1.84.48,4.9,1,6.67,0a17.3,17.3,0,0,1,1.83-1,33.52,33.52,0,0,0,3.33-4c1.46-3.37,3.32-6.53,4.94-9.78.6.24.73,1,1.29,1.29,1.67,2.57.92,6,2.79,8.49.82.52,1.3,1.67,2.36,1.72,1.49.27,3.31-.11,4.62.32a43.68,43.68,0,0,1,13.11-.65c1.39.34,2.68,1.4,4,1.73,1.08,1.06,2,2.41,3,3.43a19.76,19.76,0,0,1-.64,6.13c-2.28,3.26-4.19,6.57-6.44,9.77-3.92,3.71-7.19,8.22-10.53,12.25-2.92,2.54-5.18,5.88-7.74,8.6a39.16,39.16,0,0,0-3,2.79c-1.34.61-2.14,1.87-3.54,2.36-2.68,2.48-5.74,4.35-8.28,7.09-1.61.67-3.13,1.69-4.73,2.48a32.19,32.19,0,0,1-11.38,1.82c-1.95-.73-4.1-.29-6-1.4a34.52,34.52,0,0,1-3.22-1.61A33.33,33.33,0,0,1,287,328.7a15.15,15.15,0,0,1-1.61-3.43c-1.62-6.83-2.91-13.66-4.4-20.53.11-7.91-.27-16.22.32-23.74.31-2.24-.21-5,.43-6.87.25-3.1,1.14-6.18,1.4-9.24,1-.68,1.5-1.73,2.36-2.59,2.22.18,5.06-.44,6.66.54Z"/><path class="cls-3" d="M212.78,301.2c1.9,1.61,4.5,2.36,5.47,4.94a6.35,6.35,0,0,1,.65,2.79c-2,2.65-5.18,4.61-5.8,8.17.64-5.46-.07-10.92-1.08-16.33.14.2.68.09.76.43Z"/><path class="cls-2" d="M197.19,203c0,.17-.06.36-.11.53,0-.17.07-.36.11-.53Z"/><path class="cls-2" d="M195.91,207.08a2,2,0,0,1-.55.63,2,2,0,0,0,.55-.63Z"/><path class="cls-2" d="M197,203.64c0,.17-.06.36-.1.53,0-.17.06-.36.1-.53Z"/><path class="cls-2" d="M197.08,203.53l-.11.11.11-.11Z"/><path class="cls-2" d="M196.76,204.28c0,.17-.07.37-.11.54,0-.17.07-.37.11-.54Z"/><path class="cls-2" d="M196.87,204.17a1.14,1.14,0,0,1-.11.11,1.14,1.14,0,0,0,.11-.11Z"/><path class="cls-2" d="M194.62,210.73v0Z"/><path class="cls-2" d="M196.55,204.93c0,.17-.07.36-.11.53,0-.17.07-.36.11-.53Z"/><path class="cls-2" d="M196.65,204.82l-.1.11.1-.11Z"/><path class="cls-2" d="M194.4,219.22a10.17,10.17,0,0,0,.16,2.05,4.86,4.86,0,0,1,.11,2c-.17-1.08-.31-2.07-.27-2a12,12,0,0,1-.24-1.5c-.13-.58-.24-1.5-.14-.88a16.94,16.94,0,0,1,.09-3.38,24.75,24.75,0,0,0,.32-3.58c.41-2.69,1.2-5.5,4.82-14.11-3.67,9.8-4.06,11.38-4,11.7a21.65,21.65,0,0,0-.54,3.9,38.83,38.83,0,0,0-.3,5.81Z"/><path class="cls-2" d="M306.89,181.62l-.22.21.22-.21Z"/><path class="cls-2" d="M310.55,193.55c1.12,3,1.18,6.55,1.39,9.45.41,5.14,0,10.31,0,15.47a217.94,217.94,0,0,1-3.87,25.78c-.16,1.16-1,2-1.29,3a.37.37,0,0,1-.64,0c.2-.71.63-1.16.85-1.83,1.12-4.92,2-10,2.91-14.93.6-3.84.69-7.69,1-11.5l.21-.21c-.29-2.69.48-5.38.21-8.06.32-.21.18-.58.22-.86.22-3.65-.62-7.31-.43-11-.17-3-1.54-5.88-1.82-8.81s-1.72-5.54-5.56-15.86c3.13,7.7,3.25,7.8,3.28,7.83.49,1.5,1.4,2.71,1.63,4.17a51.47,51.47,0,0,1,1.94,7.31Z"/><path class="cls-2" d="M196.33,205.57c0,.17-.06.37-.1.54,0-.17.06-.37.1-.54Z"/><path class="cls-2" d="M196.44,205.46l-.11.11.11-.11Z"/><path class="cls-2" d="M196.23,206.11s-.07.06-.11.11.07-.06.11-.11Z"/><path class="cls-5" d="M263.16,64.82a36.05,36.05,0,0,1,4.73.54,42,42,0,0,1,7.73,2.36c1.56.65,2.94,1.73,4.52,2.26,2.13,1.07,3.58,3,5.59,4.19,1.38,1.44,2.53,2.41,3.86,3.87.69.85,1.29,1.61,1.93,2.47.27,1.09,1.29,1.88,1.62,3a17,17,0,0,1,1.28,4.09,23.37,23.37,0,0,1,.76,4.94c-.24,12.81-.4,25.64,0,38.47.65,3.78.3,7.72,1.4,11.39.55,2.73.95,5.54,2.14,7.73,2,3.68,3.65,7.59,5.92,11.29,1.24,1.34,2.21,2.85,3.43,4.3,2.45,3.5,4.49,7.61,7.1,10.84,1.67,3.35,3.49,6.61,5.36,9.89,1.4,4.21,3.8,8.08,4.84,12.46A110.9,110.9,0,0,1,329,214.17c1.6,8.67,2.73,17.27,3.75,26-.06,4.72-.65,9.46-.42,14.18-.44,1.58-.14,3.13-.55,4.73-.5,2.22-1.78,4.25-2.25,6.45.2,1.23-.44,2.41-.21,3.65,1,2.06,1.08,4.43,1.61,6.66.84.51,1.28,1.51,2.25,2.15,1.66-.3,3.27.48,5,.21,2-.53,4.08-.49,6-.85,2.38-.27,4.71.45,7.09.21,1.55,1,3.35,1.73,4.73,2.69,1.24.73,1.76,2.32,3,3.22-.43,2.11.05,4.32-.53,6.34-2.17,3-4.06,6.27-6.13,9.24-3.5,3.49-6.3,7.64-9.67,11.28-4.11,4.23-7.74,8.81-11.92,13-4.92,2.82-8.54,7.25-13.22,10.42-2.1.93-3.79,2.6-6,3a34.68,34.68,0,0,1-5.8,1.18h-5c-1.57-.54-3.32-.6-4.84-1.18-1-.57-2-.81-3-1.29-1.79-1-3.07-2.61-4.72-3.76-.39-1.13-1.41-1.94-2.15-2.9a33.32,33.32,0,0,1-2.26-5.91,15.93,15.93,0,0,0-.53-2.8c-4.14.34-8.32.43-12.47.87-4.3-.22-8.6-.26-12.89-.22-5.59-.81-11.18-1.07-16.76-2.26-4-.9-7.91-1.76-11.82-3-2.91-1.26-6-2.29-8.81-3.54-.44-.65-1.39-.73-1.83-1.29-1.38,1.14-2.16,2.82-3.54,4.19-1,2.57-2.65,4.82-4,7.21-.55.66-1.36,1.29-1.39,2.14-1.16,1-2,1.93-3.12,3-2.08.8-3.91,2.25-6.13,2.47-.55.7-2-.06-2.57.65-1.91.45-3.81-.49-5.7-.11-2.3-1-4.85-1.72-7-2.8-3.86-2.19-7.71-4.34-11.61-6.34-7.75-5.77-15.42-11.69-23-17.84l-7.09-7.08a47.69,47.69,0,0,1-1.71-5.59,40.74,40.74,0,0,0,1.28-4c.66-.59,1.27-1.47,1.94-2,.84-1.73,3.2-1.8,4.73-2.57a33.18,33.18,0,0,1,5.15-.87c2.09,0,3.61-1.17,5.38-1.5.16-.64.65-1,.85-1.72.41-2.25-.64-4.52-.43-6.76.52-1.28.9-2.54,1.4-3.88a5.28,5.28,0,0,1,2.15-2.35c.63-.23.78-.82,1.61-.76a27.79,27.79,0,0,1,5.16,0c1.61.58,3.23,1.13,4.83,1.82.79.39,2,.16,3,.22,1-.64,1.5-2.14,2.47-2.68a33.32,33.32,0,0,1,4.51-7.2c.52-.23.63-.76,1.19-.86.76-.44.48-1.55.53-1.94-.8-5.21-.15-10.46-.21-15.69.42-4.16.86-8.42,1.61-12.46.73-3.77,1.75-7.52,2.47-11.28,1.56-4.52,3.55-9,5.26-13.43,8.47-17.2,18.07-33.8,27-50.71,1.66-2.36,2.85-5,4.51-7.3v-.44c-.29-2.23.75-4.49.43-6.66V117c-.44-3.86-.08-7.75-.43-11.6-.07-.44-.16-.86-.22-1.29v-11c.32-.09.17-.28.22-.43-.29-1.07.47-1.84.21-2.9a16.28,16.28,0,0,0,1.07-4,30.56,30.56,0,0,1,5-7.41c1.83-1.86,3.85-3.37,5.8-5a51.48,51.48,0,0,1,8.6-5.27c2-.64,3.69-1.75,6-2.14a26.31,26.31,0,0,1,8.38-1.19Z"/><path class="cls-6" d="M275.2,106.51c1.3.82,2.46,1.8,3.86,2.58,1.08,2.41,0,5,.22,7.52-1.17,3.14-2,6.82-5.16,8.59a17.29,17.29,0,0,1-5.58-1.28c1.65-.57,4-1.41,4.73-3.44a9.3,9.3,0,0,0,1.5-4.73,11.07,11.07,0,0,0-1.72-5.69,7.43,7.43,0,0,0-3.87-2.37c-2.48-.46-4.4,1.1-5.59,2.69a12.59,12.59,0,0,0-1.4,3.65c-.49,2.76.54,5.65,1.83,8-1.1-1.16-3.14-1.28-3.76-2.79a16.45,16.45,0,0,1-.11-12.68,22.11,22.11,0,0,1,15.05,0Z"/><path class="cls-6" d="M241.88,106.4c1,.77,2.59.55,3.45,1.61a20.35,20.35,0,0,1,.85,12.25c-1.17-.06-2.17,2-2.79,1.08a10.53,10.53,0,0,0-.53-9.67c-.94-1.22-2.23-2.51-3.76-2.58-1.16.49-2.41.6-3.23,1.72-1.87,2.17-2.12,5.26-1.93,8a8.23,8.23,0,0,0,4.62,6.23,14,14,0,0,1-3.44,1.5,19,19,0,0,1-3.12-6.55c-1-3.33-.44-6.67-.42-10a12.25,12.25,0,0,1,4.51-3.12c1.32-1,4-.44,5.79-.43Z"/><path class="cls-6" d="M276.05,143c1.38,4,2.13,8.14,3.23,12.25,1.28,4.57,3.56,8.75,5.26,13.11,1.87,3.56,3.71,7.14,5.26,10.95.07.16.16.28.22.44,3.74,8.12,7.41,16.22,11.18,24.38a175.26,175.26,0,0,1,6,18.59c.13,3.25,1.49,6.39,1.06,9.68-1.73,6.18-3,12.53-5.15,18.59a8.52,8.52,0,0,1-1.82,3.11c-.44,0-.43.44-.87.43a7.54,7.54,0,0,0-2,2.69,19.77,19.77,0,0,0-1.07,6.55,5.92,5.92,0,0,1-2.36-1.19c-1.59-.41-3.11-.95-4.73-1.29-1.87.23-5.23-1.13-5.8,1.19-.88,1.14-1.6,1.5-2.37,2.69a162.93,162.93,0,0,0-1.93,17.93c.21,4-.46,8-.22,12a35.28,35.28,0,0,1-8.6,4,26.94,26.94,0,0,1-7.52,1.72c-2.57.41-5.21.45-7.73.85-3.87.21-7.74,0-11.6.11-2.8-.31-5.86-.86-8.38-1.07a60.2,60.2,0,0,1-15.69-5.38c.09-1.9,1.11-4,.43-6.12-2.85-8-6.83-15.56-10.1-23.42-2.91-7.42-5.16-15.08-8.06-22.45a104.28,104.28,0,0,1-4.73-11.61c-.74-1,0-2.21.22-3.23,1.06-5.42,3.43-10.29,5.37-15.47,3.22-6.42,6.05-13,9.89-19.12,1.89-3.15,1.81-6.8,2.9-10.21,1.26-4.14,3.37-7.83,5.15-11.7,2.67-4.24,4.61-8.86,7.2-13.12,2.29-4.74,3.92-10.09,6.34-14.39,1.49,1.36,3.11,2.46,4.62,3.86,2.05,1,4.24,2,6.55,1.94,3.16.47,6.3,0,9.46,0,4.26-.71,8.5-1.66,12.25-3.76,2.66-1.35,5.21-3.12,7.84-4.19.11.22.21.43.32.64Z"/><path class="cls-6" d="M197.19,203c.06-.22.16-.44.22-.65-.06.21-.16.43-.22.65Z"/><path class="cls-7" d="M254.46,117.47c1.27.4,2.72.53,3.76,1.29.32.6,1.08,1,1.29,1.61,4.29,2.36,8.47,4.79,13.32,5.8,2.26-.26,4.47.7,6.45,1.83a21.48,21.48,0,0,0,1.72,1.82c.26,1.56,1.29,2.79.75,4.62-.38.93-.49,2.11-1.19,2.8-1,.85-1.38,2-2.46,2.79-4.4,2-8.18,5-12.79,6.77-4.8,2.1-10.86,2.58-17,2.9a34.93,34.93,0,0,1-5.27-.85,20.75,20.75,0,0,1-3.33-1.51c-2.69-2.3-5.85-4.12-8-7.09-.12-.92-.7-1.12-1-1.93-.84-1.43-.71-4.55-.11-6.13.09-1,.93-1.84,1.08-2.69,3.42-2.37,7.44-3.47,10.85-5.8,1.68-2.25,4.84-2.84,6.45-4.94,1.76-.46,3.47-2,5.37-1.29Z"/><path class="cls-5" d="M275.41,135.73c-2.14,2.25-5.15,2.79-8,3.77a185.5,185.5,0,0,1-20.2,2.36,77.1,77.1,0,0,1-8.6,0,15,15,0,0,1-5.37-2.25c-.81-1-2-1.93-2.15-3.23,2.29,1,3.45,3.75,6.23,4,5.87,1.14,11.75.19,17.63-.21a94.59,94.59,0,0,0,20.41-4.41Z"/><path class="cls-8" d="M227.92,93.19c.06-.15.15-.28.22-.43,0,.15.1.34-.22.43Z"/><path class="cls-8" d="M272.29,99.42c.86.18,1.36,1.08,2.26,1.07,1,1,1.83,2.14,2.79,3.23.36,1.83,1.92,3.37,1.72,5.37-1.4-.78-2.56-1.76-3.86-2.58a22.11,22.11,0,0,0-15.05,0c.15-1.19,1.24-2.13,1.51-3.22a10.72,10.72,0,0,1,4.94-3.76c1.73-1.09,3.82-.42,5.69-.11Z"/><path class="cls-8" d="M239.31,101c.82.23,1.33,1.06,2.15,1.17a23.24,23.24,0,0,1,3,3.66c.57.6.41,1.54.86,2.14-.86-1.06-2.43-.84-3.45-1.61-1.77,0-4.47-.52-5.79.43a12.25,12.25,0,0,0-4.51,3.12v-1.5a21.28,21.28,0,0,1,1.93-5.16c1-.63,1.38-1.72,2.58-2,.68-.55,2.31-.32,3.22-.21Z"/><path class="cls-8" d="M228.14,105.44a2.69,2.69,0,0,1-.22-1.29c.06.43.15.85.22,1.29Z"/><path class="cls-8" d="M228.14,142.62c-.22-.16-.22-.28,0-.44v.44Z"/><path class="cls-8" d="M290,179.79c-.06-.16-.15-.28-.22-.44.32,0,.18.28.22.44Z"/><path class="cls-8" d="M199.13,198.05c.06-.15.15-.28.21-.43-.06.15-.15.28-.21.43Z"/><path class="cls-8" d="M247.69,207.62c.21,1.17.14,2.56.43,3.54-1.47,8.86-2.46,17.67-3.33,26.64-.82,7.38-.6,14.78-1.83,22.14a3.71,3.71,0,0,1-1.4,1.94,1.06,1.06,0,0,1-1.18-.55,5,5,0,0,1-.75-2.46,18.86,18.86,0,0,1-.21-4.73c.28-9.92,1.38-19.81,2.57-29.65.8-5.27,1.14-10.57,2.8-15.7a3.48,3.48,0,0,1,1.29-1.71c.41-.1.49-.3,1-.22.21.26.43.49.64.76Z"/><path class="cls-7" d="M194.3,253.92c1.13.42,1.83,1.47,2.89,2.05,1.06,2.59,2.51,4.82,3.55,7.41,3.14,8.19,5.75,16.51,8.38,24.93.2,1.41.87,2.57,1.07,4.07.26,6.55,2.05,13,2.15,19.56-.33,1.61.28,3.82-.53,5.05a32.18,32.18,0,0,1-3.23,7.2c-1.34,1.23-2.41,2.64-4.3,3.12a11.17,11.17,0,0,1-3.43,1.29,22.93,22.93,0,0,1-8.17.64c-2-.73-4.08-1.3-6-2-4.26-2.62-8.8-4.78-13.12-7.1-7.19-5.68-14.7-11.23-21.7-17l-7.74-7.84a24.91,24.91,0,0,0-1.5-4.41c.48-1.62,1.28-3.15,1.72-4.73.7-.52,1.44-1.37,1.94-1.82,1.7-.63,3.32-1.61,5.15-1.72,1.92-.53,4.45-.23,6.23-1.08,1.34-.73,3.37-.75,3.87-2.36a4.29,4.29,0,0,1,.86-1.72c-.12-1.38-.53-2.8-.53-4.19-.11-.85-.34-2.39.21-3,0-1.44,1.21-2.57,1.4-3.86a9,9,0,0,1,2.14-1.18c1.15.09,2.09-.64,3.23-.22,1.14.18,2.31,0,3.43.64s2.81.6,3.88,1.51a14.78,14.78,0,0,0,2.68.1c1.34-1.08,2-2.46,3.33-3.54a39.58,39.58,0,0,1,2.91-5.05,17.44,17.44,0,0,1,1.93-2.36c1-.38,1.6-1.23,2.58-1.51a8.84,8.84,0,0,1,4.4-1.29c0,.28.27.17.33.43Z"/><path class="cls-7" d="M292.17,262.84a20.41,20.41,0,0,1,2.8.75c.64.34,1,1.07,1.93,1.07.32,2.56-.37,5.17.32,7.74a13,13,0,0,0,1.4,3.34c1.34,1.71,3.48,2.54,5,4,2.06.93,4.08,2.1,6.34,2.47,1.84.48,4.9,1,6.67,0a17.3,17.3,0,0,1,1.83-1,33.52,33.52,0,0,0,3.33-4c1.46-3.37,3.32-6.53,4.94-9.78.6.24.73,1,1.29,1.29,1.67,2.57.92,6,2.79,8.49.82.52,1.3,1.67,2.36,1.72,1.49.27,3.31-.11,4.62.32a43.68,43.68,0,0,1,13.11-.65c1.39.34,2.68,1.4,4,1.73,1.08,1.06,2,2.41,3,3.43a19.76,19.76,0,0,1-.64,6.13c-2.28,3.26-4.19,6.57-6.44,9.77-3.92,3.71-7.19,8.22-10.53,12.25-2.92,2.54-5.18,5.88-7.74,8.6a39.16,39.16,0,0,0-3,2.79c-1.34.61-2.14,1.87-3.54,2.36-2.68,2.48-5.74,4.35-8.28,7.09-1.61.67-3.13,1.69-4.73,2.48a32.19,32.19,0,0,1-11.38,1.82c-1.95-.73-4.1-.29-6-1.4a34.52,34.52,0,0,1-3.22-1.61A33.33,33.33,0,0,1,287,328.7a15.15,15.15,0,0,1-1.61-3.43c-1.62-6.83-2.91-13.66-4.4-20.53.11-7.91-.27-16.22.32-23.74.31-2.24-.21-5,.43-6.87.25-3.1,1.14-6.18,1.4-9.24,1-.68,1.5-1.73,2.36-2.59,2.22.18,5.06-.44,6.66.54Z"/><path class="cls-7" d="M212.78,301.2c1.9,1.61,4.5,2.36,5.47,4.94a6.35,6.35,0,0,1,.65,2.79c-2,2.65-5.18,4.61-5.8,8.17.64-5.46-.07-10.92-1.08-16.33.14.2.68.09.76.43Z"/><path class="cls-6" d="M197.19,203c0,.17-.06.36-.11.53,0-.17.07-.36.11-.53Z"/><path class="cls-6" d="M195.91,207.08a2,2,0,0,1-.55.63,2,2,0,0,0,.55-.63Z"/><path class="cls-6" d="M197,203.64c0,.17-.06.36-.1.53,0-.17.06-.36.1-.53Z"/><path class="cls-6" d="M197.08,203.53l-.11.11.11-.11Z"/><path class="cls-6" d="M196.76,204.28c0,.17-.07.37-.11.54,0-.17.07-.37.11-.54Z"/><path class="cls-6" d="M196.87,204.17a1.14,1.14,0,0,1-.11.11,1.14,1.14,0,0,0,.11-.11Z"/><path class="cls-6" d="M196.55,204.93c0,.17-.07.36-.11.53,0-.17.07-.36.11-.53Z"/><path class="cls-6" d="M196.65,204.82l-.1.11.1-.11Z"/><path class="cls-6" d="M194.4,219.22a10.17,10.17,0,0,0,.16,2.05,4.86,4.86,0,0,1,.11,2c-.17-1.08-.31-2.07-.27-2a12,12,0,0,1-.24-1.5c-.13-.58-.24-1.5-.14-.88a16.94,16.94,0,0,1,.09-3.38,24.75,24.75,0,0,0,.32-3.58c.41-2.69,1.2-5.5,4.82-14.11-3.67,9.8-4.06,11.38-4,11.7a21.65,21.65,0,0,0-.54,3.9,38.83,38.83,0,0,0-.3,5.81Z"/><path class="cls-6" d="M306.89,181.62l-.22.21.22-.21Z"/><path class="cls-6" d="M310.55,193.55c1.12,3,1.18,6.55,1.39,9.45.41,5.14,0,10.31,0,15.47a217.94,217.94,0,0,1-3.87,25.78c-.16,1.16-1,2-1.29,3a.37.37,0,0,1-.64,0c.2-.71.63-1.16.85-1.83,1.12-4.92,2-10,2.91-14.93.6-3.84.69-7.69,1-11.5l.21-.21c-.29-2.69.48-5.38.21-8.06.32-.21.18-.58.22-.86.22-3.65-.62-7.31-.43-11-.17-3-1.54-5.88-1.82-8.81s-1.72-5.54-5.56-15.86c3.13,7.7,3.25,7.8,3.28,7.83.49,1.5,1.4,2.71,1.63,4.17a51.47,51.47,0,0,1,1.94,7.31Z"/><path class="cls-6" d="M196.33,205.57c0,.17-.06.37-.1.54,0-.17.06-.37.1-.54Z"/><path class="cls-6" d="M196.44,205.46l-.11.11.11-.11Z"/><path class="cls-6" d="M196.23,206.11s-.07.06-.11.11.07-.06.11-.11Z"/><path class="cls-9" d="M84,373.76h4.18v37.61h16v4H84V373.76Zm81.38-1.84a3.28,3.28,0,0,1,3.27,3.28,3.05,3.05,0,0,1-1,2.29,3.22,3.22,0,0,1-4.61,0,3.08,3.08,0,0,1-1-2.29,3.26,3.26,0,0,1,3.25-3.28Zm-2,12.68h4v30.79h-4V384.6Zm66.06,0h4v5.52a16.41,16.41,0,0,1,5.27-4.74A12.91,12.91,0,0,1,245,383.8a11,11,0,0,1,6.13,1.76,10.43,10.43,0,0,1,3.93,4.72c.85,2,1.28,5.08,1.28,9.25v15.86h-3.93v-14.7a35,35,0,0,0-.46-7.09,7.88,7.88,0,0,0-2.65-4.6,8.07,8.07,0,0,0-5.1-1.55,9.75,9.75,0,0,0-6.44,2.38,11.24,11.24,0,0,0-3.75,5.89,41.43,41.43,0,0,0-.57,8.38v11.29h-4V384.6Zm88.71,0h4V399a31.24,31.24,0,0,0,.56,7.24,8.25,8.25,0,0,0,3.24,4.47,9.89,9.89,0,0,0,5.71,1.64,9.6,9.6,0,0,0,5.62-1.6,8.19,8.19,0,0,0,3.18-4.2c.4-1.19.59-3.71.59-7.55V384.6h4.05v15.12c0,4.23-.49,7.43-1.48,9.58a11.36,11.36,0,0,1-4.47,5.05,16.28,16.28,0,0,1-15,0,11.25,11.25,0,0,1-4.5-5.09q-1.49-3.27-1.49-9.83V384.6Zm86.1,0H409l8.15,11.4,8.14-11.4h4.76l-10.52,14.63,11.84,16.16h-4.8l-9.42-12.94-9.28,12.94h-4.74l11.67-16.16L404.27,384.6Z"/></svg>