<svg id="macOS" xmlns="http://www.w3.org/2000/svg" viewBox="0 0 500 500"><defs><style>.cls-1,.cls-2{fill:#b3b3b3;}.cls-1{fill-rule:evenodd;}</style></defs><title>Tekengebied 1</title><path class="cls-1" d="M281.34,102.7c7.35-9.19,12.71-21.82,11.33-34.56-11,.4-24.08,7.25-31.87,16.49-7,8-13.12,21.1-11.37,33.45,11.94.79,24.22-6.14,31.91-15.38Z"/><path class="cls-1" d="M170.34,230.14h0a.08.08,0,0,0,0-.06v.06Z"/><path class="cls-1" d="M313.16,203.1H313v-.33c-3.42-6.89-5-17.67-3.67-26.4V176h0c1.37-11.43,8.74-23.13,14.62-27.37l.23-.18v0h0a64.36,64.36,0,0,1,7.54-6.24,49,49,0,0,0-40-21.26c-15.61-1.31-31.8,9.88-40.54,9.62-8.45.26-21.21-9.84-34.68-9.2l-.13,0c-.3,0-2.73.13-2.73.13-17.85.44-33.68,11-42.67,26.91v.06H171v-.06c-3.56,5.75-7.82,19.15-8.46,27.63h0v.45c-.86,5.38,0,19.72.94,26.62h0a1.51,1.51,0,0,1,.06.35l0,0c.75,6.87,4.25,20.16,6.86,26.65v.06h0c2.51,7.18,9.53,20.64,14.06,27.52v0h.05c9.15,13.14,19.92,27.9,34.12,27.27,13.73-.52,18.78-9.11,35.3-9,16.52-.13,21.09,8.57,35.57,8.63,14.75-.63,23.9-13.76,33-26.92,4.49-6.78,11.52-19.82,14-27.57h0c.28-.82.69-2.08,1-3-9.7-2.75-20.59-15.54-24.4-24.05Z"/><path class="cls-2" d="M70.24,381.05c0-6.33-.13-11.52-.51-16.58h9.75l.51,9.87h.38c3.42-5.82,9.11-11.27,19.24-11.27A18.12,18.12,0,0,1,117,375.36h.25a25.3,25.3,0,0,1,6.84-8,20.88,20.88,0,0,1,13.55-4.31c8.1,0,20.13,5.32,20.13,26.59v36.09H146.84V391.06c0-11.78-4.3-18.87-13.29-18.87-6.33,0-11.27,4.69-13.17,10.13a18.26,18.26,0,0,0-.89,5.57v37.86H108.6V389c0-9.75-4.3-16.84-12.78-16.84-7,0-12,5.57-13.81,11.14a15.47,15.47,0,0,0-.88,5.45v37H70.24Z"/><path class="cls-2" d="M209.77,425.75l-.89-7.72h-.38a22.82,22.82,0,0,1-18.74,9.11c-12.41,0-18.74-8.73-18.74-17.6,0-14.81,13.17-22.92,36.85-22.79v-1.26c0-5.07-1.39-14.19-13.93-14.19A30.55,30.55,0,0,0,178,375.86l-2.53-7.34c5.06-3.29,12.4-5.45,20.13-5.45,18.74,0,23.29,12.79,23.29,25.07v22.92a86.23,86.23,0,0,0,1,14.69Zm-1.65-31.27c-12.15-.26-26,1.9-26,13.8,0,7.21,4.81,10.63,10.5,10.63a15.25,15.25,0,0,0,14.82-10.25,11.65,11.65,0,0,0,.63-3.55Z"/><path class="cls-2" d="M280.54,423.47C277.63,425,271.18,427,263,427c-18.49,0-30.52-12.54-30.52-31.28s12.92-32.54,32.92-32.54a37.22,37.22,0,0,1,15.45,3.17L278.27,375c-2.66-1.52-6.84-2.92-12.92-2.92-14.05,0-21.65,10.39-21.65,23.18,0,14.18,9.12,22.91,21.27,22.91a31.59,31.59,0,0,0,13.68-3Z"/><path class="cls-2" d="M366.9,382.19c0,29.38-17.86,44.95-39.64,44.95-22.53,0-38.36-17.47-38.36-43.3,0-27.1,16.84-44.82,39.63-44.82C351.83,339,366.9,356.87,366.9,382.19Zm-66.22,1.4c0,18.23,9.87,34.56,27.22,34.56s27.35-16.08,27.35-35.45c0-17-8.87-34.69-27.23-34.69S300.68,364.85,300.68,383.59Z"/><path class="cls-2" d="M379.68,412.33a39,39,0,0,0,19.75,5.57c11.27,0,17.86-5.95,17.86-14.56,0-8-4.56-12.54-16.08-17-13.93-4.94-22.54-12.15-22.54-24.18,0-13.3,11-23.17,27.6-23.17,8.74,0,15.07,2,18.87,4.18l-3,9a34,34,0,0,0-16.21-4.06c-11.65,0-16.08,7-16.08,12.79,0,8,5.19,11.9,17,16.46,14.43,5.57,21.78,12.54,21.78,25.07,0,13.17-9.75,24.57-29.89,24.57-8.22,0-17.21-2.41-21.77-5.45Z"/></svg>