<svg id="Laag_12" data-name="Laag 12" xmlns="http://www.w3.org/2000/svg" viewBox="0 0 500 500"><defs><style>.cls-1{fill:#f92815;}.cls-2{fill:#fff;fill-rule:evenodd;}</style></defs><title>Tekengebied 1</title><rect class="cls-1" x="47" y="47" width="406" height="406"/><path class="cls-2" d="M258.14,202.94V125.05c0-2.22,0-2.25,2.32-2.25,8.07,0,16.13-.11,24.2,0A41,41,0,0,1,324.38,156a49,49,0,0,1,.86,9.12q.11,38.34,0,76.68a41.28,41.28,0,0,1-41.18,41.6c-7.77.05-15.53,0-23.29,0-2.67,0-2.67,0-2.67-2.73Zm31.94-8a16.15,16.15,0,1,0,16,16.36A16.23,16.23,0,0,0,290.08,195Z"/><path class="cls-2" d="M242.11,203.11v78.06c0,2-.22,2.24-2.25,2.24H206.73a41.25,41.25,0,0,1-29.4-11.49,39.67,39.67,0,0,1-11.74-21.15,36.8,36.8,0,0,1-.9-7.3c-.06-26.88-.41-53.77.1-80.63.32-16.85,9-29,24.16-36.36a40.16,40.16,0,0,1,17.83-3.68c11,0,22,0,33,0,2.28,0,2.36.08,2.36,2.41ZM229,270.3V135.79h-1.75c-6.75,0-13.51,0-20.26,0a41.2,41.2,0,0,0-6.74.61c-12.66,2.29-22.57,14.19-22.58,27.07,0,26.47-.08,52.93.05,79.4,0,7.9,3.29,14.6,9.09,20,5.56,5.18,12.27,7.46,19.79,7.49,7,0,14,0,21,0C228.05,270.38,228.49,270.33,229,270.3Z"/><path class="cls-2" d="M164.31,338c2.62,0,5.09,0,7.54.05.33,0,.8.66.92,1.09,2.29,8.5,4.53,17,6.9,26,.42-1.26.74-2.14,1-3,2.22-7.58,4.45-15.16,6.6-22.76.29-1,.68-1.39,1.73-1.32a23.85,23.85,0,0,0,3.78,0,1.73,1.73,0,0,1,2.1,1.51c2.28,8,4.63,15.95,7,23.92.14.47.29.94.56,1.78.58-2.06,1.08-3.76,1.54-5.48,1.84-6.91,3.64-13.83,5.51-20.73a1.49,1.49,0,0,1,1-.92c2.41-.08,4.82,0,7.47,0-.48,1.8-.91,3.46-1.38,5.11-3,10.53-6,21.06-9,31.59a1.49,1.49,0,0,1-1.76,1.32c-2.11-.08-4.24-.08-6.35,0a1.6,1.6,0,0,1-1.88-1.41c-2.06-7.47-4.19-14.93-6.29-22.4-.05-.19-.11-.37-.28-.93-.69,2.39-1.3,4.44-1.88,6.49-1.6,5.64-3.2,11.26-4.75,16.91-.27,1-.68,1.38-1.75,1.34-2.22-.09-4.44,0-6.65,0-.71,0-1.17-.06-1.41-.94q-5.07-18-10.22-36.08A6.12,6.12,0,0,1,164.31,338Z"/><path class="cls-2" d="M336.38,338c0,4.56,0,8.88,0,13.21,0,1.31.24,1.85,1.72,1.82,4.69-.1,9.38-.09,14.07,0,1.51,0,1.88-.5,1.84-1.92-.09-3.83-.05-7.66-.06-11.49,0-.49.06-1,.09-1.55h7.73v37.82H354V361H336.48v14.93c-2.61,0-5.05,0-7.48-.07-.23,0-.59-.91-.6-1.4,0-5.65,0-11.29,0-16.94,0-6.05,0-12.1,0-18.15,0-1,.25-1.45,1.34-1.42C331.85,338,334,338,336.38,338Z"/><path class="cls-2" d="M125,372.76l3.4-6.11c2.56.88,4.92,1.86,7.37,2.5a22.79,22.79,0,0,0,12.5-.08,6.65,6.65,0,0,0,2.14-1c2.59-2,2.24-5-.86-6.07a62.67,62.67,0,0,0-8.17-1.95c-4.17-.81-8.41-1.42-12.08-3.78a8.72,8.72,0,0,1-1.25-13.76c4-3.85,9.07-4.92,14.43-5a41.8,41.8,0,0,1,13.68,2.56,3.66,3.66,0,0,1,.69.44c-.88,2.15-1.75,4.27-2.58,6.28a79.32,79.32,0,0,0-8.2-2.06c-3.38-.49-6.82-.65-10.12.67-1.32.53-2.41,1.31-2.46,2.9a2.85,2.85,0,0,0,2.41,2.89c3,.82,6.14,1.35,9.17,2.16a80.3,80.3,0,0,1,9,2.8c3.7,1.48,5.9,4.26,5.88,8.45s-1.67,7.57-5.46,9.7a23.35,23.35,0,0,1-10,2.55A37.26,37.26,0,0,1,126,373.43a4.22,4.22,0,0,1-.66-.36A1.84,1.84,0,0,1,125,372.76Z"/><path class="cls-2" d="M319.83,345.8l-6.11,5.32a12.08,12.08,0,0,0-10.46-5.87,11.48,11.48,0,0,0-8.41,3.5,11.75,11.75,0,0,0,10,19.86,12.31,12.31,0,0,0,8.84-5.75l6,5.22c-2.87,5.7-11.19,9.91-18.58,9.06A20.24,20.24,0,0,1,297,337.7C305.56,335,315.56,338.52,319.83,345.8Z"/><path class="cls-2" d="M265.33,375.88h-8.28V346.1H245V338h32v8h-11.6Z"/><path class="cls-2" d="M235.63,376h-6.79c-.44,0-.89,0-1.44-.07V338.05h8.23Z"/><path class="cls-2" d="M342,317.77a10.69,10.69,0,1,1,10.63,10.75A10.56,10.56,0,0,1,342,317.77Zm10.57-6.19A6.21,6.21,0,0,0,352.7,324a6.21,6.21,0,1,0-.18-12.41Z"/><path class="cls-2" d="M289.31,320.7v-13a24.81,24.81,0,0,1,3.47.07c.3,0,.7.86.7,1.32,0,5.14,0,10.28,0,15.41v3.4c-1.28,0-2.47.08-3.64,0-.39,0-.81-.52-1.09-.9-3-4-5.92-8-9.16-12.31v13.17h-4.14V307.69c1.21,0,2.4-.06,3.58,0,.36,0,.75.44,1,.77q4.05,5.34,8.06,10.7C288.42,319.6,288.74,320,289.31,320.7Z"/><path class="cls-2" d="M179.25,307.7a28.45,28.45,0,0,1,3.61.05,2.51,2.51,0,0,1,1.35,1c2.74,3.6,5.44,7.23,8.15,10.84.16.23.35.43.8,1V310.47c0-2.8,0-2.8,2.78-2.79h1.28V327.8c-1.93.07-3.79.61-5.27-1.7-2.21-3.46-4.85-6.65-7.31-10-.29-.4-.61-.79-1.16-1.48v12.94c-.26.16-.34.25-.43.25-3.8.21-3.8.21-3.8-3.58Z"/><path class="cls-2" d="M140.45,307.75h4.11v20.14a15.15,15.15,0,0,1-2.7,0,3.1,3.1,0,0,1-1.82-.93c-2.76-3.58-5.42-7.24-8.12-10.87-.29-.39-.62-.75-1.15-1.39v13c-.23.13-.31.21-.4.21-3.8.2-3.8.2-3.8-3.56,0-5,0-10.07,0-15.11,0-1.19.37-1.45,1.54-1.55a4.17,4.17,0,0,1,4.22,2.06c2.37,3.43,4.95,6.71,7.45,10.05.14.18.31.34.69.76Z"/><path class="cls-2" d="M310.33,327.64v-20c2.27,0,4.46-.07,6.65,0a20.92,20.92,0,0,1,4.75.56c4.82,1.35,7.58,5.53,7.21,10.64a9.68,9.68,0,0,1-8.51,8.67A96.76,96.76,0,0,1,310.33,327.64Zm4.14-10c0,1.57,0,3.13,0,4.69,0,.8.23,1.24,1.12,1.2,1.36-.05,2.73,0,4.07-.1a5.67,5.67,0,0,0,.22-11.23c-1.39-.18-2.81-.12-4.22-.21-1-.07-1.22.4-1.19,1.27C314.5,314.7,314.47,316.16,314.47,317.62Z"/><path class="cls-2" d="M247.63,311.54c-.18.25-.23.29-.23.34-.44,3.92-.44,3.92,3.51,3.92h7v3.61H247.42V324h11.31v3.86H243.36v-20h15.51a28.23,28.23,0,0,1-.05,3.18c0,.23-.73.54-1.13.55-2.82.05-5.64,0-8.46,0Z"/><path class="cls-2" d="M218,312.1h-6.32v-4.3h16.8v4.27h-6v15.74H218Z"/><path class="cls-2" d="M159.92,307.76h4.28v20h-4.28Z"/><path class="cls-2" d="M373.74,373.11a14.3,14.3,0,0,1-.65,1.77,4.15,4.15,0,0,1-.85.88,4.91,4.91,0,0,1-.67-.85c-.25-.53-.43-1.1-.71-1.84l-.45,2.79-.54-.09v-4.71c.73-.1.73-.1,2.47,2.85.92-.86.14-3.16,2.44-3,.43,3,.25,4.42-.7,4.85v-2.57Z"/><path class="cls-2" d="M366.46,372.13a2.65,2.65,0,0,1-.85-.11,3,3,0,0,1-.64-.6c.25-.17.5-.46.76-.48a13.74,13.74,0,0,1,2.4,0c.33,0,.63.31.94.48a4.77,4.77,0,0,1-.81.61,2.3,2.3,0,0,1-.72.14,22.17,22.17,0,0,1,0,2.59,3.82,3.82,0,0,1-.58,1.16,3.71,3.71,0,0,1-.45-1.08C366.42,374,366.46,373.13,366.46,372.13Z"/><path class="cls-2" d="M189.72,170.88a15.09,15.09,0,1,1,14.82,15.2A14.9,14.9,0,0,1,189.72,170.88Z"/></svg>