<svg id="Laag_13" data-name="Laag 13" xmlns="http://www.w3.org/2000/svg" xmlns:xlink="http://www.w3.org/1999/xlink" viewBox="0 0 500 500"><defs><style>.cls-1{fill:url(#Naamloos_verloop_2);}.cls-2{fill:gray;}</style><linearGradient id="Naamloos_verloop_2" x1="189.49" y1="457.57" x2="330.28" y2="232.93" gradientTransform="matrix(1, 0, 0, -1, 0, 502)" gradientUnits="userSpaceOnUse"><stop offset="0.1" stop-color="#ff4c1d"/><stop offset="0.3" stop-color="#f64523"/><stop offset="0.5" stop-color="#de3334"/><stop offset="0.8" stop-color="#b61550"/><stop offset="1" stop-color="#9b0063"/></linearGradient></defs><title>Tekengebied 1</title><path class="cls-1" d="M156.37,149a287.82,287.82,0,0,1,248.45,4.14c4.14,3.11,10.35,0,11.39-4.14l14.49-44.51c2.07-4.14,0-10.35-5.18-12.42A352,352,0,0,0,58,127.24a10.36,10.36,0,0,0-3.11,13.46l34.16,75.57c2.07,5.18,8.28,8.28,13.46,6.21,38.3-14.49,97.31-29,157.35-20.7a284.94,284.94,0,0,0-99.38,37.27,10.34,10.34,0,0,0-3.1,13.45l20.7,47.62c2.07,4.14,7.25,5.18,10.35,2.07a116,116,0,0,1,23.81-18.63c33.13-18.63,78.68-33.13,139.75-30a10.37,10.37,0,0,0,10.36-7.25l15.52-46.58c2.08-4.14,0-10.35-4.14-12.42A315.72,315.72,0,0,0,155.34,149Z"/><path class="cls-2" d="M168.69,437.9h-9.2a2.75,2.75,0,0,1-2.76-3.22V380.41h-23a2.76,2.76,0,0,1-2.75-2.76v-8.28a2.65,2.65,0,0,1,2.75-2.76h60.71a2.65,2.65,0,0,1,2.76,2.76v8.28a3,3,0,0,1-2.76,2.76h-23v54.27a2.65,2.65,0,0,1-2.76,2.76Zm-60.71,0H65.67a2.76,2.76,0,0,1-2.31-3.15s0-.05,0-.07V426.4a2.58,2.58,0,0,1,2.3-2.76h45.07a4.61,4.61,0,0,0,4.6-4.6v-6a5,5,0,0,0-4.6-4.6H80.85c-8.28,0-12.88-1.38-16.56-4.6-3.68-3.68-4.6-8.27-4.6-15.63v-.92c0-7.36.92-11.5,4.6-15.18s8.28-5.06,16.56-5.06h40a2.44,2.44,0,0,1,2.76,2.76v8.28a2.65,2.65,0,0,1-2.76,2.76H78.55a4.6,4.6,0,0,0-4.6,4.6h0V391a4.61,4.61,0,0,0,4.6,4.6H108c8.28,0,13.34,1.38,17,5.05,3.22,3.22,4.6,7.82,4.6,15.18v1.84c0,7.36-1.38,11.5-4.6,15.18C121.32,436.52,116.26,437.9,108,437.9Zm221.21-63q-8.28-8.28-24.84-8.28H272.16a2.44,2.44,0,0,0-2.76,2.76v65.77a2.17,2.17,0,0,0,2.3,2.3h32.65q16.56,0,24.84-8.28c6.44-6,8.28-13.34,8.28-26.68V402C337.47,388.23,335.63,381.33,329.19,374.89Zm-6.44,27.59c0,9.2,0,13.34-4.14,17-2.76,2.76-7.36,4.6-13.8,4.6H284.12V380h20.23c6.9,0,11.5,1.38,14.26,4.6,3.68,3.22,4.6,7.82,4.6,17Zm35.87,35.42h-9.2a2.8,2.8,0,0,1-2.76-3.22V369.37a2.65,2.65,0,0,1,2.76-2.76h9.2a2.44,2.44,0,0,1,2.76,2.76v65.31c0,1.84-.92,2.76-2.3,2.76ZM263,433.3l-30.35-62.09a9.12,9.12,0,0,0-16.55-.46L185.7,433.3A2.39,2.39,0,0,0,188,437h10.12a3.87,3.87,0,0,0,3.22-1.84l4.6-10.12h36.79l4.6,10.12a3.87,3.87,0,0,0,3.22,1.84h10.11A2.51,2.51,0,0,0,263,433.3Zm-38.63-48.75,12.42,28.05H211.92ZM446,433.3l-30.35-62.55a9.32,9.32,0,0,0-17,0L368.28,433.3c-.92,1.84.46,3.68,2.76,3.68h9.66a3.85,3.85,0,0,0,3.21-1.84l4.6-10.12H425.3l4.6,10.12a4.78,4.78,0,0,0,3.68,1.84h9.66a2.51,2.51,0,0,0,2.3-3.68Zm-39.09-49.21,12.42,28.05H394.49Z"/></svg>