<svg id="tvOS" xmlns="http://www.w3.org/2000/svg" viewBox="0 0 500 500"><defs><style>.cls-1{fill:#b3b3b3;}</style></defs><title>Tekengebied 1</title><path class="cls-1" d="M74.34,184.1v29.31h26.58v14.13H74.34v55c0,12.65,3.59,19.82,13.92,19.82A41,41,0,0,0,99,301.14l.84,13.92c-3.58,1.48-9.28,2.53-16.45,2.53-8.64,0-15.6-2.74-20-7.8-5.28-5.48-7.17-14.55-7.17-26.57V227.54H40.39V213.41H56.21V189Z"/><path class="cls-1" d="M130.86,213.41l20,57.37a261.07,261.07,0,0,1,8.23,26.15h.63c2.32-8.44,5.27-16.87,8.65-26.15l19.82-57.37h19.4L167.55,315.49H149.84L111,213.41Z"/><path class="cls-1" d="M347.23,242.94c0,48.93-29.73,74.86-66,74.86-37.54,0-63.9-29.1-63.9-72.12,0-45.13,28.05-74.66,66-74.66C322.13,171,347.23,200.76,347.23,242.94Zm-110.3,2.32c0,30.37,16.45,57.57,45.35,57.57,29.1,0,45.55-26.78,45.55-59,0-28.26-14.76-57.78-45.34-57.78C252.12,186,236.93,214.05,236.93,245.26Z"/><path class="cls-1" d="M368.53,293.13a65,65,0,0,0,32.9,9.28c18.77,0,29.73-9.91,29.73-24.25,0-13.29-7.59-20.88-26.78-28.26-23.2-8.23-37.54-20.25-37.54-40.28,0-22.15,18.35-38.6,46-38.6,14.55,0,25.09,3.38,31.42,7l-5.06,15a56.63,56.63,0,0,0-27-6.75c-19.4,0-26.78,11.6-26.78,21.3,0,13.28,8.65,19.82,28.26,27.41,24,9.28,36.27,20.88,36.27,41.76,0,21.93-16.23,40.91-49.77,40.91-13.7,0-28.68-4-36.27-9.06Z"/></svg>