<svg id="WebGL" xmlns="http://www.w3.org/2000/svg" xmlns:xlink="http://www.w3.org/1999/xlink" viewBox="0 0 500 500"><defs><style>.cls-1{fill:none;}.cls-2{fill:#af1921;}.cls-3{clip-path:url(#clip-path);}</style><clipPath id="clip-path"><rect class="cls-1" x="11.57" y="142" width="479.87" height="200.53"/></clipPath></defs><title>Tekengebied 1</title><polygon class="cls-2" points="477.99 275.13 474.73 275.13 474.73 283.6 471.89 283.6 471.89 275.13 468.63 275.13 468.63 272.68 477.99 272.68 477.99 275.13 477.99 275.13 477.99 275.13"/><polygon class="cls-2" points="479.26 272.68 483.45 272.68 485.33 279.96 485.36 279.96 487.24 272.68 491.43 272.68 491.43 283.6 488.77 283.6 488.77 275.32 488.74 275.32 486.45 283.61 484.28 283.61 481.98 275.32 481.95 275.32 481.95 283.61 479.29 283.61 479.29 272.68 479.26 272.68 479.26 272.68"/><path class="cls-2" d="M365.32,283a30.91,30.91,0,0,1-12,2.53,42.74,42.74,0,0,1-17.23-3.33A37,37,0,0,1,323.16,273a40.6,40.6,0,0,1-8.06-13.75,50.57,50.57,0,0,1-2.8-17,52.42,52.42,0,0,1,2.79-17.38,41.82,41.82,0,0,1,8-14A36.7,36.7,0,0,1,336,201.49a42.08,42.08,0,0,1,17.23-3.39A40.22,40.22,0,0,1,365.66,200a35.08,35.08,0,0,1,10.89,5.68,30.74,30.74,0,0,1,11.86,21.86H370.9q-1.63-7-6.31-10.5a18.33,18.33,0,0,0-11.33-3.51,21.29,21.29,0,0,0-10.51,2.4,19.87,19.87,0,0,0-7,6.44,28.11,28.11,0,0,0-3.91,9.19,45.36,45.36,0,0,0-1.23,10.64,42.57,42.57,0,0,0,1.23,10.24,27.66,27.66,0,0,0,3.92,9,20,20,0,0,0,7,6.36,21.4,21.4,0,0,0,10.53,2.4q9.12,0,14.09-4.6t5.79-13.32H354.71V238.52h35v45.09H378.05l-1.86-9.46A27.49,27.49,0,0,1,365.32,283Z"/><g class="cls-3"><polygon class="cls-2" points="419.43 200.19 419.43 268.09 460.08 268.09 460.08 283.57 401.14 283.57 401.14 200.21 419.43 200.21 419.43 200.19 419.43 200.19"/><path class="cls-2" d="M332.91,293.94c-28,17-69.91,26.72-116.69,26.72-84.28,0-152.6-35.11-152.6-78.4s68.32-78.38,152.6-78.38c46.93,0,89.06,9.87,117,27-30.55-28.7-85.33-48.87-148-48.88C89.33,142,11.57,186.86,11.57,242.24S89.33,342.52,185.25,342.53c62.38,0,117-20.1,147.66-48.59Z"/></g><polygon class="cls-2" points="179.18 193.7 163.09 263.31 143.66 193.7 128.91 193.7 109.53 263.31 93.4 193.7 78.2 193.7 102.07 284.43 116.33 284.43 136.41 213.17 156.25 284.43 170.55 284.43 195.26 193.7 179.18 193.7 179.18 193.7"/><path class="cls-2" d="M214.17,232.86c9.54,0,14.63,5.14,15.57,15.7H198.88c.46-8.6,7.27-15.7,15.28-15.7Zm21.28-1a22.4,22.4,0,0,0-8.3-7.19,26,26,0,0,0-11.62-2.53,31.15,31.15,0,0,0-13.07,2.63,24.62,24.62,0,0,0-9.13,7.24c-4.55,5.82-7,14-7,23.72a38.87,38.87,0,0,0,1.84,12,28.26,28.26,0,0,0,5.32,9.63c4.88,5.67,11.84,8.67,20.13,8.67a35.86,35.86,0,0,0,10.85-1.39,21.62,21.62,0,0,0,5.7-2.81,24.05,24.05,0,0,0,4.94-4.34,27.61,27.61,0,0,0,3.31-4.79,23.23,23.23,0,0,0,2.69-7.54l.13-1H229.43l-.07.84c-.29,3.85-5.35,10.72-14.35,10.72-12.86,0-15.94-9.31-16.14-17.49H242v-.91A59.18,59.18,0,0,0,240.35,243a32.91,32.91,0,0,0-4.9-11.12Z"/><path class="cls-2" d="M291,254c0,6.48-1.31,11.9-3.77,15.69a12.74,12.74,0,0,1-11.31,6.08c-7.07,0-15.31-4.94-15.31-18.85,0-6.65.83-11.8,2.52-15.68,2.45-5.62,6.56-8.34,12.56-8.34,6.4,0,10.67,2.5,13.07,7.65,2,4.27,2.24,9.43,2.24,13.45Zm10.6-13.39a28.89,28.89,0,0,0-5-9.59,23.25,23.25,0,0,0-8.15-6.47,25.4,25.4,0,0,0-10.92-2.34,22.19,22.19,0,0,0-9.95,2.38,21.08,21.08,0,0,0-6.48,5.24V202H249.25v82.48h11.24v-5.63a18.63,18.63,0,0,0,3.93,3.85,19.71,19.71,0,0,0,11.72,3.44,25.69,25.69,0,0,0,13.07-3.27,24.33,24.33,0,0,0,8.4-8.29A36.07,36.07,0,0,0,302,263.69a49.61,49.61,0,0,0,1.28-11.26,39.47,39.47,0,0,0-1.72-11.82Z"/></svg>