<svg id="Windows" xmlns="http://www.w3.org/2000/svg" viewBox="0 0 500 500"><defs><style>.cls-1{fill:#009fe3;}</style></defs><title>Tekengebied 1</title><path class="cls-1" d="M106.77,415.74a45.45,45.45,0,0,0-1.27,7.41h-.22a48.09,48.09,0,0,0-1.16-7.19l-15-59.38H75.54L59.29,415.51a44.39,44.39,0,0,0-1.55,7.75h-.28a42.82,42.82,0,0,0-1.1-7.75L42,356.58H27.55l22.17,80.49H64.93l15.14-56.41a39.13,39.13,0,0,0,1.33-7.75h.22a39,39,0,0,0,1.16,7.86l15.09,56.3h14.88l21.72-80.49h-13.6l-14.1,59.16Z"/><polygon class="cls-1" points="138.67 437.07 151.69 437.07 151.69 379.59 138.67 379.59 138.67 437.07 138.67 437.07"/><path class="cls-1" d="M194,378.24q-11.86,0-18.14,10.89h-.22v-9.54H163v57.48h12.73V404.29A16.82,16.82,0,0,1,179.45,393c2.51-3,5.63-5.38,9.49-5.38,7.39,0,13.18,3,13,17v32.39h10.88V401.93q0-11.51-4.81-17.6T194,378.24Z"/><path class="cls-1" d="M264.9,410.89a19.23,19.23,0,0,1-4.31,12.85,14,14,0,0,1-11.25,5.1,13.57,13.57,0,0,1-11.22-5.27Q234,418.29,234,409.2q0-10,4.34-15.67a14.22,14.22,0,0,1,11.92-5.66,13.82,13.82,0,0,1,10.55,4.43,15.23,15.23,0,0,1,4.14,10.78v7.81Zm-.17-25.58h-.23c-3.51-6.21-9.14-7.07-16.89-7.07s-14.08,2.87-18.78,8.59-7,13.34-7,22.85q0,13.31,6.37,21t17,7.72c8.72,0,15.17-2.25,19.36-9.66h.23v8.31h13V352h-13v33.34Z"/><path class="cls-1" d="M326.66,423q-4.11,5.11-11.81,5.11a15.11,15.11,0,0,1-12-5.19q-4.5-5.2-4.49-14.23,0-9.37,4.43-14.71t12.07-5.33q7.69,0,11.81,5.16t4.13,14.65q0,9.44-4.13,14.54Zm-11-44.74q-14,0-22.32,8.14T285.05,409q0,13.31,7.94,21.36t21.25,8.06q13.68,0,21.8-8.28t8.11-22q0-14-7.52-21.95t-21-7.92Z"/><path class="cls-1" d="M405.72,421.18a26.28,26.28,0,0,0-.83,4.94h-.39a28.86,28.86,0,0,0-.73-4.94l-10.25-41.59H381.38L369.84,420.9A27,27,0,0,0,369,426h-.39a25.6,25.6,0,0,0-.67-4.93l-10.36-41.43H344.15l16.77,57.48h13.26L385.44,398a22.56,22.56,0,0,0,1-4.94h.23a24.56,24.56,0,0,0,.78,5.05l10.36,39h13.54l16.83-57.48H415.87l-10.15,41.59Z"/><path class="cls-1" d="M463.26,410.38a20.68,20.68,0,0,0-4.62-3.57,67.15,67.15,0,0,0-6.13-3.08c-1.73-.64-3.25-1.23-4.58-1.77a17.2,17.2,0,0,1-3.41-1.8,6.79,6.79,0,0,1-2.15-2.27,6.37,6.37,0,0,1-.72-3.14,5.51,5.51,0,0,1,.72-2.78,6.49,6.49,0,0,1,2-2.16,10.15,10.15,0,0,1,3.13-1.41,15.74,15.74,0,0,1,4.11-.5,20.91,20.91,0,0,1,12.82,4.15V380.66a33.85,33.85,0,0,0-13.13-2.42,29.41,29.41,0,0,0-8,1.1,22.55,22.55,0,0,0-6.93,3.25,16.63,16.63,0,0,0-4.86,5.34,14.45,14.45,0,0,0-1.81,7.32,18.14,18.14,0,0,0,.88,5.9,13.73,13.73,0,0,0,2.61,4.51,18.15,18.15,0,0,0,4.35,3.57,47.17,47.17,0,0,0,5.87,3c1.75.71,3.35,1.35,4.78,1.91a19,19,0,0,1,3.72,1.91,9.14,9.14,0,0,1,2.51,2.44,5.83,5.83,0,0,1,.93,3.34q0,7-10.86,7a22.73,22.73,0,0,1-14.84-5.56v12.07a33.56,33.56,0,0,0,15.05,3.15,34.55,34.55,0,0,0,8.56-1,22.53,22.53,0,0,0,7.16-3.17,16.43,16.43,0,0,0,5-5.39,15.14,15.14,0,0,0,1.86-7.64,16.8,16.8,0,0,0-1-6.2,14,14,0,0,0-2.95-4.6Z"/><path class="cls-1" d="M145.55,353.5c-4.32,0-7.83,3.23-7.83,7.21s3.51,7.22,7.83,7.22,7.83-3.23,7.83-7.22-3.5-7.21-7.83-7.21Z"/><path class="cls-1" d="M479.29,389.2a5.9,5.9,0,1,1-8.36-8.33A5.9,5.9,0,0,1,481,385a5.65,5.65,0,0,1-1.72,4.16Zm-4.18-11a6.74,6.74,0,0,0-4.88,2,6.75,6.75,0,0,0,0,9.61,7,7,0,0,0,9.75,0,6.72,6.72,0,0,0,0-9.61,6.7,6.7,0,0,0-4.87-2Z"/><path class="cls-1" d="M475,384.56h-1.15V382h1a2.44,2.44,0,0,1,1.34.29,1.11,1.11,0,0,1,.42,1c0,.86-.52,1.3-1.57,1.3Zm1.13.82v0a2.74,2.74,0,0,0,1.57-.83,2.24,2.24,0,0,0,.53-1.5,2,2,0,0,0-.87-1.71,4.15,4.15,0,0,0-2.47-.63h-2.57v8.57h1.53v-3.47h.71c.49,0,1,.5,1.38,1.49l.83,2h1.92L477.52,387c-.48-1-.95-1.48-1.43-1.59Z"/><polygon class="cls-1" points="379.17 311.45 383.81 311.45 383.81 325.88 385.71 325.88 385.71 311.45 390.37 311.45 390.37 309.74 379.17 309.74 379.17 311.45 379.17 311.45"/><path class="cls-1" d="M405.84,309.74l-5,11.22q-.3.65-.78,2h-.07a14.06,14.06,0,0,0-.74-1.94l-4.95-11.26h-2.5v16.14h1.82v-10.8c0-1.47,0-2.52-.09-3.16h0a9.06,9.06,0,0,0,.48,1.65l5.51,12.31h.92l5.51-12.4a9.16,9.16,0,0,0,.49-1.56h0c-.1,1.23-.16,2.28-.16,3.14v10.82h1.89V309.74Z"/><polygon class="cls-1" points="118 276.89 208.68 294.83 208.68 193.35 118 193.35 118 276.89 118 276.89"/><polygon class="cls-1" points="118 182.04 208.68 182.04 208.68 80.77 118 98.73 118 182.04 118 182.04"/><polygon class="cls-1" points="222.87 182.04 369.08 182.04 369.08 49 222.87 77.96 222.87 182.04 222.87 182.04"/><polygon class="cls-1" points="222.87 297.65 369.08 326.61 369.08 193.35 222.87 193.35 222.87 297.65 222.87 297.65"/></svg>