<svg id="xbox_one" data-name="xbox one" xmlns="http://www.w3.org/2000/svg" viewBox="0 0 500 500"><defs><style>.cls-1{fill:#0f7c10;}</style></defs><title>Tekengebied 1</title><path class="cls-1" d="M261.89,413.72l-20.83-28.27-20.81,28.27h-8.57l25-34.15-22.87-31.06h8.57l18.64,25.33,18.64-25.33h8.57l-22.86,31.05,25,34.16Zm-162.33,0L74.49,379.56l22.87-31.05H88.79L70.15,373.84,51.52,348.51H43l22.86,31.05L40.77,413.71h8.58l20.81-28.26L91,413.71Z"/><path class="cls-1" d="M147.23,382a18.06,18.06,0,0,0-4.28-2.72,14.79,14.79,0,0,0,7.85-13.06c0-4.17-1.54-17.74-21.2-17.74H103.12v28.11H94.3c-1.14,1.49-3.74,5.08-4.73,6.55h13.55v30.54H129.6c14.35,0,23.26-7.28,23.26-19A16.1,16.1,0,0,0,147.23,382m-36.79-26.71H129.6c5.19,0,13.87,1.29,13.87,10.36,0,6.86-5.05,10.94-13.87,10.94H110.44v-21.3Zm19.16,51.6H110.43V383.18H129.6c7.26,0,16,2,16,11.36,0,10.77-10,12.38-16,12.38M187.3,347c-18.31,0-31.12,14-31.12,34.07S169,415.17,187.3,415.17s31.07-14,31.07-34.09S205.6,347,187.3,347m0,61.26c-14,0-23.73-11.19-23.73-27.19s9.78-27.18,23.73-27.18S211,365.08,211,381.08s-9.72,27.19-23.66,27.19m-13.82-300.5-.1.09h0a107,107,0,0,0-10,141,.46.46,0,0,0,.57.18.42.42,0,0,0,.13-.55c-8.16-25.22,33.54-86.36,55.08-112a.55.55,0,0,0,.16-.31.49.49,0,0,0-.2-.35c-36.24-36.07-45.92-27.83-45.78-27.94m150.25-.09.11.09h0a107,107,0,0,1,9.94,141,.46.46,0,0,1-.57.18.46.46,0,0,1-.13-.55c8.16-25.22-33.5-86.4-55-112a.54.54,0,0,1-.15-.3.46.46,0,0,1,.2-.36c36.25-36.07,45.86-27.77,45.73-27.88M248.56,77c21.59,0,39.35,5.92,55.73,15.66a.39.39,0,0,1-.33.71c-20.72-4.48-52.21,13.42-55.18,15.21a.36.36,0,0,1-.22.09.39.39,0,0,1-.24-.09c-7.9-4.53-37-19.79-55.33-15.1a.43.43,0,0,1-.52-.19.43.43,0,0,1,.18-.53C209,82.92,227,77,248.56,77m0,85.82a.56.56,0,0,1,.33.17c32,24.35,86.83,84.54,70.1,101.56l0,0v0h0a106.93,106.93,0,0,1-140.88,0l0,0,0,0c-16.69-17,38.1-77.21,70.09-101.56a.67.67,0,0,1,.37-.17M397,348.51V402l-39.42-53.56h-6.46v65.16h7.26V361.29L397,413.66h7.27V348.51ZM313.44,347c-18.32,0-31.13,14-31.13,34.07s12.81,34.11,31.13,34.11,31.07-14,31.07-34.11S331.74,347,313.44,347m0,61.27c-14,0-23.74-11.19-23.74-27.2s9.78-27.18,23.74-27.18,23.65,11.18,23.65,27.18-9.72,27.2-23.65,27.2m106.27-1V383.18h35.88V376.8H419.71v-22H458v-6.37H412.41v65.2h46.06v-6.38Z"/></svg>